#N canvas 0 0 450 300 10;
#X obj 10 270 inlet;
#X obj 130 270 inlet;
#X obj 190 270 r \$0-read;
#X obj 130 300 r \$0-all;
#X obj 190 300 faust-control \$0;
#X obj 190 330 s \$0-write;
#X obj 130 330 r \$0-in;
#X obj 130 600 s \$0-out;
#X obj 10 360 faust-gate 1;
#X obj 130 360 j_kick~;
#X obj 10 390 faust-gate 2;
#X obj 130 390 j_kick~;
#X obj 10 420 faust-gate 3;
#X obj 130 420 j_kick~;
#X obj 10 450 faust-gate 4;
#X obj 130 450 j_kick~;
#X obj 10 480 faust-gate 5;
#X obj 130 480 j_kick~;
#X obj 10 510 faust-gate 6;
#X obj 130 510 j_kick~;
#X obj 10 540 faust-gate 7;
#X obj 130 540 j_kick~;
#X obj 10 570 faust-gate 8;
#X obj 130 570 j_kick~;
#X obj 130 630 outlet~;
#X obj 190 630 outlet~;
#X obj 10 630 outlet;
#X connect 1 0 4 0;
#X connect 2 0 4 0;
#X connect 4 0 5 0;
#X connect 1 0 26 0;
#X connect 6 0 9 0;
#X connect 9 0 7 0;
#X connect 0 0 8 0;
#X connect 8 0 9 0;
#X connect 3 0 9 0;
#X connect 0 0 10 0;
#X connect 10 0 11 0;
#X connect 3 0 11 0;
#X connect 0 0 12 0;
#X connect 12 0 13 0;
#X connect 3 0 13 0;
#X connect 0 0 14 0;
#X connect 14 0 15 0;
#X connect 3 0 15 0;
#X connect 0 0 16 0;
#X connect 16 0 17 0;
#X connect 3 0 17 0;
#X connect 0 0 18 0;
#X connect 18 0 19 0;
#X connect 3 0 19 0;
#X connect 0 0 20 0;
#X connect 20 0 21 0;
#X connect 3 0 21 0;
#X connect 0 0 22 0;
#X connect 22 0 23 0;
#X connect 3 0 23 0;
#X connect 9 1 24 0;
#X connect 9 2 25 0;
#X connect 11 1 24 0;
#X connect 11 2 25 0;
#X connect 13 1 24 0;
#X connect 13 2 25 0;
#X connect 15 1 24 0;
#X connect 15 2 25 0;
#X connect 17 1 24 0;
#X connect 17 2 25 0;
#X connect 19 1 24 0;
#X connect 19 2 25 0;
#X connect 21 1 24 0;
#X connect 21 2 25 0;
#X connect 23 1 24 0;
#X connect 23 2 25 0;
#X obj 10 30 hsl 128 15 0 1 0 0 \$0-j-kick/bGain \$0-j-kick/bGain bGain -2 -6 0 10 -262144 -1 -1 0 1;
#X obj 160 30 nbx 5 14 0 1 0 0 \$0-j-kick/bGain \$0-j-kick/bGain empty 0 -6 0 10 -262144 -1 -1 256;
#X obj 10 60 bng 15 250 50 0 \$0-j-kick/bassGate \$0-j-kick/bassGate bassGate 0 -6 0 10 -262144 -1 -1;
#X obj 10 90 hsl 128 15 0 1 0 0 \$0-j-kick/cGain \$0-j-kick/cGain cGain -2 -6 0 10 -262144 -1 -1 0 1;
#X obj 160 90 nbx 5 14 0 1 0 0 \$0-j-kick/cGain \$0-j-kick/cGain empty 0 -6 0 10 -262144 -1 -1 256;
#X obj 10 120 bng 15 250 50 0 \$0-j-kick/clickGate \$0-j-kick/clickGate clickGate 0 -6 0 10 -262144 -1 -1;
#X obj 10 150 hsl 128 15 20 2000 0 0 \$0-j-kick/freqB \$0-j-kick/freqB freqB -2 -6 0 10 -262144 -1 -1 0 1;
#X obj 160 150 nbx 5 14 20 2000 0 0 \$0-j-kick/freqB \$0-j-kick/freqB empty 0 -6 0 10 -262144 -1 -1 256;
#X obj 10 180 hsl 128 15 20 2000 0 0 \$0-j-kick/freqC \$0-j-kick/freqC freqC -2 -6 0 10 -262144 -1 -1 0 1;
#X obj 160 180 nbx 5 14 20 2000 0 0 \$0-j-kick/freqC \$0-j-kick/freqC empty 0 -6 0 10 -262144 -1 -1 256;
#X obj 197 3 bng 15 250 50 1 \$0-init \$0-ignore empty 0 -6 0 10 -262144 -1 -1;
#X obj 217 3 tgl 15 1 \$0-active \$0-active empty 0 -6 0 10 -262144 -1 -1 1 1;
#X obj 450 10 r \$0-init;
#X obj 642 10 s \$0-all;
#X obj 738 10 s \$0-read;
#X obj 834 10 r \$0-write;
#X msg 450 30 1;
#X obj 450 50 s \$0-active;
#X connect 43 0 44 0;
#X obj 642 30 r \$0-active;
#X msg 642 50 active \$1;
#X connect 45 0 46 0;
#X connect 46 0 40 0;
#X obj 834 30 route active;
#X obj 834 50 s \$0-active;
#X connect 42 0 47 0;
#X connect 47 0 48 0;
#X msg 450 70 0.5;
#X obj 450 90 s \$0-j-kick/bGain;
#X connect 39 0 49 0;
#X connect 49 0 50 0;
#X obj 642 70 r \$0-j-kick/bGain;
#X msg 642 90 /j-kick/bGain \$1;
#X connect 51 0 52 0;
#X connect 52 0 40 0;
#X obj 834 70 route /j-kick/bGain;
#X obj 834 90 s \$0-j-kick/bGain;
#X connect 47 1 53 0;
#X connect 53 0 54 0;
#X msg 450 110 0;
#X obj 450 130 faust-s \$0-j-kick/bassGate;
#X connect 39 0 55 0;
#X connect 55 0 56 0;
#X obj 642 110 r \$0-j-kick/bassGate;
#X obj 642 130 faust-r /j-kick/bassGate;
#X connect 57 0 58 0;
#X connect 58 0 40 0;
#X obj 834 110 route /j-kick/bassGate;
#X obj 834 130 faust-s \$0-j-kick/bassGate;
#X connect 53 1 59 0;
#X connect 59 0 60 0;
#X msg 450 150 0.5;
#X obj 450 170 s \$0-j-kick/cGain;
#X connect 39 0 61 0;
#X connect 61 0 62 0;
#X obj 642 150 r \$0-j-kick/cGain;
#X msg 642 170 /j-kick/cGain \$1;
#X connect 63 0 64 0;
#X connect 64 0 40 0;
#X obj 834 150 route /j-kick/cGain;
#X obj 834 170 s \$0-j-kick/cGain;
#X connect 59 1 65 0;
#X connect 65 0 66 0;
#X msg 450 190 0;
#X obj 450 210 faust-s \$0-j-kick/clickGate;
#X connect 39 0 67 0;
#X connect 67 0 68 0;
#X obj 642 190 r \$0-j-kick/clickGate;
#X obj 642 210 faust-r /j-kick/clickGate;
#X connect 69 0 70 0;
#X connect 70 0 40 0;
#X obj 834 190 route /j-kick/clickGate;
#X obj 834 210 faust-s \$0-j-kick/clickGate;
#X connect 65 1 71 0;
#X connect 71 0 72 0;
#X msg 450 230 44;
#X obj 450 250 s \$0-j-kick/freqB;
#X connect 39 0 73 0;
#X connect 73 0 74 0;
#X obj 642 230 r \$0-j-kick/freqB;
#X msg 642 250 /j-kick/freqB \$1;
#X connect 75 0 76 0;
#X connect 76 0 40 0;
#X obj 834 230 route /j-kick/freqB;
#X obj 834 250 s \$0-j-kick/freqB;
#X connect 71 1 77 0;
#X connect 77 0 78 0;
#X msg 450 270 44;
#X obj 450 290 s \$0-j-kick/freqC;
#X connect 39 0 79 0;
#X connect 79 0 80 0;
#X obj 642 270 r \$0-j-kick/freqC;
#X msg 642 290 /j-kick/freqC \$1;
#X connect 81 0 82 0;
#X connect 82 0 40 0;
#X obj 834 270 route /j-kick/freqC;
#X obj 834 290 s \$0-j-kick/freqC;
#X connect 77 1 83 0;
#X connect 83 0 84 0;
#X coords 0 -1 1 1 235 200 1 0 0;
#X text 0 220 Generated Tue Nov  1 15:23:04 2022 by faust2pd v2.16. See http://faust.grame.fr and http://purelang.bitbucket.org.;
