#N canvas 266 43 1135 796 12;
#X obj 526 762 dac~ 1 2;
#X msg 383 376 bassGate \$1;
#X msg 482 437 clickGate \$1;
#N canvas 92 117 450 300 trig 0;
#X obj 57 31 inlet;
#X text 102 32 bang;
#X obj 57 55 t b b b;
#X msg 108 82 stop;
#X obj 131 161 i 1;
#X obj 54 178 i 0;
#X obj 54 202 outlet;
#X obj 54 154 del 10;
#X connect 0 0 2 0;
#X connect 2 0 7 0;
#X connect 2 1 4 0;
#X connect 2 2 3 0;
#X connect 3 0 7 0;
#X connect 4 0 6 0;
#X connect 5 0 6 0;
#X connect 7 0 5 0;
#X restore 399 349 pd trig;
#N canvas 92 117 450 300 trig 0;
#X obj 57 31 inlet;
#X text 102 32 bang;
#X obj 57 55 t b b b;
#X msg 108 82 stop;
#X obj 131 161 i 1;
#X obj 54 178 i 0;
#X obj 54 202 outlet;
#X obj 54 154 del 10;
#X connect 0 0 2 0;
#X connect 2 0 7 0;
#X connect 2 1 4 0;
#X connect 2 2 3 0;
#X connect 3 0 7 0;
#X connect 4 0 6 0;
#X connect 5 0 6 0;
#X connect 7 0 5 0;
#X restore 482 402 pd trig;
#X obj 39 45 tgl 15 0 empty empty empty 17 7 0 10 #fcfcfc #000000 #000000 0 1;
#X msg 112 24 60;
#X obj 38 85 j-metro 120;
#X obj 38 118 s ticks;
#X obj 422 175 r ticks;
#X floatatom 120 382 5 0 0 0 - - - 0;
#X floatatom 131 52 5 0 0 0 - - - 0;
#X msg 731 621 cGain \$1;
#X obj 734 571 hsl 128 15 0 127 0 0 empty empty empty -2 -8 0 10 #fcfcfc #000000 #000000 0 1;
#X obj 731 591 / 127;
#X obj 234 134 r ticks;
#X msg 279 91 length \$1;
#X floatatom 279 65 5 0 0 0 - - - 0;
#X msg 356 42 syncStart;
#X msg 603 176 length \$1;
#X floatatom 623 142 5 0 0 0 - - - 0;
#X msg 495 133 syncStart;
#X msg 299 345 gate \$1;
#X obj 423 208 j-tick-counter 4;
#X msg 528 161 freeStart;
#X msg 120 411 freqB \$1;
#X floatatom 747 480 5 0 0 0 - - - 0;
#X msg 747 510 freqC \$1;
#X obj 482 340 t b b;
#N canvas 92 117 450 300 trig 0;
#X obj 57 31 inlet;
#X text 102 32 bang;
#X obj 57 55 t b b b;
#X msg 108 82 stop;
#X obj 131 161 i 1;
#X obj 54 178 i 0;
#X obj 54 202 outlet;
#X obj 54 154 del 10;
#X connect 0 0 2 0;
#X connect 2 0 7 0;
#X connect 2 1 4 0;
#X connect 2 2 3 0;
#X connect 3 0 7 0;
#X connect 4 0 6 0;
#X connect 5 0 6 0;
#X connect 7 0 5 0;
#X restore 299 319 pd trig;
#X obj 1004 300 * 360;
#X floatatom 1004 324 5 0 0 0 - - - 0;
#X floatatom 1004 242 5 0 0 0 - - - 0;
#X obj 421 247 sel 0 270 540 1260;
#N canvas 441 108 994 764 click-clone 0;
#X obj 204 229 i;
#X obj 249 228 + 1;
#X obj 249 252 == 1;
#X obj 60 283 route 0 1, f 31;
#X obj 60 231 list prepend;
#X obj 60 255 list trim;
#X obj 61 21 inlet;
#X obj 61 165 t a a;
#X obj 204 203 t b;
#X obj 60 445 j_kick~;
#X obj 83 519 +~;
#X obj 407 217 inlet;
#X text 455 217 messages;
#X obj 407 241 t a a;
#X obj 233 499 +~;
#X obj 60 307 t a b b, f 11;
#X obj 210 317 t a b b;
#X obj 233 573 *~;
#X obj 346 475 vline~;
#X obj 346 447 pack 0 3;
#X obj 83 570 *~;
#X obj 164 534 vline~;
#X obj 164 506 pack 0 3;
#X obj 148 334 i 0;
#X obj 118 335 i 1;
#X obj 233 355 i 1;
#X obj 302 371 i 0;
#X obj 83 664 outlet~;
#X obj 265 188 sel 1;
#X obj 210 425 j_kick~;
#X obj 75 99 list prepend bassGate;
#X obj 193 158 unpack s 0;
#X obj 33 132 list prepend clickGate;
#X obj 61 62 route clickGate bassGate gate;
#X obj 243 100 list prepend gate;
#X connect 0 0 1 0;
#X connect 0 0 4 1;
#X connect 1 0 2 0;
#X connect 2 0 0 1;
#X connect 3 0 15 0;
#X connect 3 1 16 0;
#X connect 4 0 5 0;
#X connect 5 0 3 0;
#X connect 6 0 33 0;
#X connect 7 0 4 0;
#X connect 7 1 31 0;
#X connect 8 0 0 0;
#X connect 9 1 10 0;
#X connect 9 2 10 1;
#X connect 10 0 20 0;
#X connect 11 0 13 0;
#X connect 13 0 9 0;
#X connect 13 1 29 0;
#X connect 14 0 17 0;
#X connect 15 0 9 0;
#X connect 15 1 24 0;
#X connect 15 2 23 0;
#X connect 16 0 29 0;
#X connect 16 1 25 0;
#X connect 16 2 26 0;
#X connect 17 0 27 0;
#X connect 18 0 17 1;
#X connect 19 0 18 0;
#X connect 20 0 27 0;
#X connect 21 0 20 1;
#X connect 22 0 21 0;
#X connect 23 0 19 0;
#X connect 24 0 22 0;
#X connect 25 0 19 0;
#X connect 26 0 22 0;
#X connect 28 0 8 0;
#X connect 29 1 14 0;
#X connect 29 2 14 1;
#X connect 30 0 7 0;
#X connect 31 1 28 0;
#X connect 32 0 4 0;
#X connect 33 0 32 0;
#X connect 33 1 30 0;
#X connect 33 2 34 0;
#X connect 34 0 7 0;
#X restore 353 420 pd click-clone;
#X obj 519 311 bng 15 250 50 0 empty empty empty 17 7 0 10 #fcfcfc #000000 #000000;
#N canvas 63 88 994 764 click-clone 0;
#X obj 204 229 i;
#X obj 249 228 + 1;
#X obj 249 252 == 1;
#X obj 60 283 route 0 1, f 31;
#X obj 60 231 list prepend;
#X obj 60 255 list trim;
#X obj 61 21 inlet;
#X obj 61 165 t a a;
#X obj 204 203 t b;
#X obj 60 445 j_kick~;
#X obj 83 519 +~;
#X obj 407 217 inlet;
#X text 455 217 messages;
#X obj 407 241 t a a;
#X obj 233 499 +~;
#X obj 60 307 t a b b, f 11;
#X obj 210 317 t a b b;
#X obj 233 573 *~;
#X obj 346 475 vline~;
#X obj 83 570 *~;
#X obj 164 534 vline~;
#X obj 148 334 i 0;
#X obj 118 335 i 1;
#X obj 233 355 i 1;
#X obj 302 371 i 0;
#X obj 83 664 outlet~;
#X obj 265 188 sel 1;
#X floatatom 197 257 5 0 0 0 - - - 0;
#X obj 210 425 j_kick~;
#X obj 193 158 unpack s 0;
#X obj 346 447 pack 0 9;
#X obj 164 506 pack 0 9;
#X connect 0 0 1 0;
#X connect 0 0 4 1;
#X connect 0 0 27 0;
#X connect 1 0 2 0;
#X connect 2 0 0 1;
#X connect 3 0 15 0;
#X connect 3 1 16 0;
#X connect 4 0 5 0;
#X connect 5 0 3 0;
#X connect 6 0 7 0;
#X connect 7 0 4 0;
#X connect 7 1 29 0;
#X connect 8 0 0 0;
#X connect 9 1 10 0;
#X connect 9 2 10 1;
#X connect 10 0 19 0;
#X connect 11 0 13 0;
#X connect 13 0 9 0;
#X connect 13 1 28 0;
#X connect 14 0 17 0;
#X connect 15 0 9 0;
#X connect 15 1 22 0;
#X connect 15 2 21 0;
#X connect 16 0 28 0;
#X connect 16 1 23 0;
#X connect 16 2 24 0;
#X connect 17 0 25 0;
#X connect 18 0 17 1;
#X connect 19 0 25 0;
#X connect 20 0 19 1;
#X connect 21 0 30 0;
#X connect 22 0 31 0;
#X connect 23 0 30 0;
#X connect 24 0 31 0;
#X connect 26 0 8 0;
#X connect 28 1 14 0;
#X connect 28 2 14 1;
#X connect 29 1 26 0;
#X connect 30 0 18 0;
#X connect 31 0 20 0;
#X restore 521 641 pd click-clone;
#X obj 347 608 hip~ 200;
#X obj 386 494 max~;
#X obj 418 453 sig~ 0;
#X obj 386 518 min~;
#X obj 433 517 *~ 0.5;
#X obj 433 541 +~ 0.5;
#X obj 347 584 *~ 0.7;
#X obj 584 298 del 112;
#X obj 578 338 t b b;
#X floatatom 186 365 5 0 0 0 - - - 0;
#X msg 186 395 freqC \$1;
#X obj 222 283 bng 15 250 50 0 empty empty empty 17 7 0 10 #fcfcfc #000000 #000000;
#X msg 39 514 cGain \$1;
#X obj 42 464 hsl 128 15 0 127 0 0 empty empty empty -2 -8 0 10 #fcfcfc #000000 #000000 0 1;
#X obj 39 484 / 127;
#X msg 179 328 240;
#X msg 109 334 55;
#X obj 828 52 swap 60000;
#X obj 828 76 /;
#X floatatom 828 100 5 0 0 0 - - - 0;
#X obj 828 163 swap 1000;
#X obj 828 187 /;
#X floatatom 828 211 5 0 0 0 - - - 0;
#X obj 433 493 osc~ 0.35;
#X obj 828 123 * 1;
#X obj 375 303 bng 15 250 50 0 empty empty empty 17 7 0 10 #fcfcfc #000000 #000000;
#X obj 433 565 *~ 0.5;
#X msg 70 330 120;
#X obj 433 589 +~ 0.05;
#N canvas 441 366 994 764 click-clone 0;
#X obj 204 229 i;
#X obj 249 228 + 1;
#X obj 249 252 == 1;
#X obj 60 283 route 0 1, f 31;
#X obj 60 231 list prepend;
#X obj 60 255 list trim;
#X obj 61 21 inlet;
#X obj 61 165 t a a;
#X obj 204 203 t b;
#X obj 60 445 j_kick~;
#X obj 83 519 +~;
#X obj 407 217 inlet;
#X text 455 217 messages;
#X obj 407 241 t a a;
#X obj 233 499 +~;
#X obj 60 307 t a b b, f 11;
#X obj 210 317 t a b b;
#X obj 233 573 *~;
#X obj 346 475 vline~;
#X obj 346 447 pack 0 3;
#X obj 83 570 *~;
#X obj 164 534 vline~;
#X obj 164 506 pack 0 3;
#X obj 148 334 i 0;
#X obj 118 335 i 1;
#X obj 233 355 i 1;
#X obj 302 371 i 0;
#X obj 83 664 outlet~;
#X obj 265 188 sel 1;
#X floatatom 197 257 5 0 0 0 - - - 0;
#X obj 210 425 j_kick~;
#X obj 75 99 list prepend bassGate;
#X obj 193 158 unpack s 0;
#X obj 33 132 list prepend clickGate;
#X obj 61 62 route clickGate bassGate gate;
#X obj 243 100 list prepend gate;
#X connect 0 0 1 0;
#X connect 0 0 4 1;
#X connect 0 0 29 0;
#X connect 1 0 2 0;
#X connect 2 0 0 1;
#X connect 3 0 15 0;
#X connect 3 1 16 0;
#X connect 4 0 5 0;
#X connect 5 0 3 0;
#X connect 6 0 34 0;
#X connect 7 0 4 0;
#X connect 7 1 32 0;
#X connect 8 0 0 0;
#X connect 9 1 10 0;
#X connect 9 2 10 1;
#X connect 10 0 20 0;
#X connect 11 0 13 0;
#X connect 13 0 9 0;
#X connect 13 1 30 0;
#X connect 14 0 17 0;
#X connect 15 0 9 0;
#X connect 15 1 24 0;
#X connect 15 2 23 0;
#X connect 16 0 30 0;
#X connect 16 1 25 0;
#X connect 16 2 26 0;
#X connect 17 0 27 0;
#X connect 18 0 17 1;
#X connect 19 0 18 0;
#X connect 20 0 27 0;
#X connect 21 0 20 1;
#X connect 22 0 21 0;
#X connect 23 0 19 0;
#X connect 24 0 22 0;
#X connect 25 0 19 0;
#X connect 26 0 22 0;
#X connect 28 0 8 0;
#X connect 30 1 14 0;
#X connect 30 2 14 1;
#X connect 31 0 7 0;
#X connect 32 1 28 0;
#X connect 33 0 4 0;
#X connect 34 0 33 0;
#X connect 34 1 31 0;
#X connect 34 2 35 0;
#X connect 35 0 7 0;
#X restore 115 573 pd click-clone;
#X msg 140 525 bassGate \$1;
#N canvas 92 117 450 300 trig 0;
#X obj 57 31 inlet;
#X text 102 32 bang;
#X obj 57 55 t b b b;
#X msg 108 82 stop;
#X obj 131 161 i 1;
#X obj 54 178 i 0;
#X obj 54 202 outlet;
#X obj 54 154 del 10;
#X connect 0 0 2 0;
#X connect 2 0 7 0;
#X connect 2 1 4 0;
#X connect 2 2 3 0;
#X connect 3 0 7 0;
#X connect 4 0 6 0;
#X connect 5 0 6 0;
#X connect 7 0 5 0;
#X restore 156 498 pd trig;
#X obj 610 368 i 45;
#X msg 833 16 140;
#X obj 750 113 / 4;
#X floatatom 750 137 5 0 0 0 - - - 0;
#X obj 234 195 sel 0;
#X obj 134 638 *~ 0.6;
#X obj 627 704 lop~ 5;
#X obj 527 709 *~;
#X obj 641 658 hsl 128 15 0 127 0 0 empty empty empty -2 -8 0 10 #fcfcfc #000000 #000000 0 1;
#X obj 638 678 / 127;
#X obj 514 370 i 80, f 6;
#X obj 234 163 j-tick-counter 0.75;
#X msg 179 709 open -bytes 3 new.wav;
#X obj 259 748 writesf~ 2;
#X msg 105 731 start;
#X msg 122 749 stop;
#X connect 1 0 34 0;
#X connect 2 0 36 0;
#X connect 3 0 1 0;
#X connect 4 0 2 0;
#X connect 5 0 7 0;
#X connect 6 0 7 1;
#X connect 7 0 8 0;
#X connect 9 0 23 0;
#X connect 10 0 25 0;
#X connect 11 0 7 1;
#X connect 12 0 36 1;
#X connect 13 0 14 0;
#X connect 14 0 12 0;
#X connect 15 0 80 0;
#X connect 16 0 80 1;
#X connect 17 0 16 0;
#X connect 18 0 23 1;
#X connect 18 0 80 1;
#X connect 19 0 23 1;
#X connect 20 0 19 0;
#X connect 21 0 23 1;
#X connect 23 0 33 0;
#X connect 24 0 23 1;
#X connect 25 0 34 1;
#X connect 25 0 66 1;
#X connect 26 0 27 0;
#X connect 27 0 36 1;
#X connect 28 0 4 0;
#X connect 28 1 79 0;
#X connect 29 0 22 0;
#X connect 30 0 31 0;
#X connect 32 0 30 0;
#X connect 33 0 3 0;
#X connect 33 0 68 0;
#X connect 33 1 3 0;
#X connect 33 1 44 0;
#X connect 33 2 3 0;
#X connect 33 3 3 0;
#X connect 33 3 44 0;
#X connect 34 0 38 0;
#X connect 35 0 28 0;
#X connect 36 0 76 0;
#X connect 37 0 76 0;
#X connect 38 0 40 0;
#X connect 39 0 38 1;
#X connect 40 0 43 0;
#X connect 41 0 42 0;
#X connect 42 0 63 0;
#X connect 43 0 37 0;
#X connect 44 0 45 0;
#X connect 45 1 69 0;
#X connect 46 0 47 0;
#X connect 47 0 34 1;
#X connect 47 0 66 1;
#X connect 48 0 29 0;
#X connect 49 0 34 1;
#X connect 50 0 51 0;
#X connect 51 0 49 0;
#X connect 52 0 46 0;
#X connect 53 0 10 0;
#X connect 54 0 55 0;
#X connect 54 1 55 1;
#X connect 55 0 56 0;
#X connect 56 0 61 0;
#X connect 56 0 71 0;
#X connect 57 0 58 0;
#X connect 57 1 58 1;
#X connect 58 0 59 0;
#X connect 60 0 41 0;
#X connect 61 0 57 0;
#X connect 61 0 44 1;
#X connect 62 0 3 0;
#X connect 63 0 65 0;
#X connect 64 0 10 0;
#X connect 65 0 40 1;
#X connect 66 0 74 0;
#X connect 67 0 66 0;
#X connect 68 0 67 0;
#X connect 69 0 26 0;
#X connect 70 0 54 0;
#X connect 71 0 72 0;
#X connect 73 0 28 0;
#X connect 74 0 76 0;
#X connect 75 0 76 1;
#X connect 76 0 0 0;
#X connect 76 0 0 1;
#X connect 76 0 82 0;
#X connect 76 0 82 1;
#X connect 77 0 78 0;
#X connect 78 0 75 0;
#X connect 79 0 26 0;
#X connect 80 0 73 0;
#X connect 81 0 82 0;
#X connect 83 0 82 0;
#X connect 84 0 82 0;
