#N canvas 34 227 1440 847 12;
#X declare -path ../lib;
#X obj 526 762 dac~ 1 2;
#X msg 383 376 bassGate \$1;
#X msg 482 437 clickGate \$1;
#N canvas 92 117 450 300 trig 0;
#X obj 57 31 inlet;
#X text 102 32 bang;
#X obj 57 55 t b b b;
#X msg 108 82 stop;
#X obj 131 161 i 1;
#X obj 54 178 i 0;
#X obj 54 202 outlet;
#X obj 54 154 del 10;
#X connect 0 0 2 0;
#X connect 2 0 7 0;
#X connect 2 1 4 0;
#X connect 2 2 3 0;
#X connect 3 0 7 0;
#X connect 4 0 6 0;
#X connect 5 0 6 0;
#X connect 7 0 5 0;
#X restore 399 349 pd trig;
#N canvas 92 117 450 300 trig 0;
#X obj 57 31 inlet;
#X text 102 32 bang;
#X obj 57 55 t b b b;
#X msg 108 82 stop;
#X obj 131 161 i 1;
#X obj 54 178 i 0;
#X obj 54 202 outlet;
#X obj 54 154 del 10;
#X connect 0 0 2 0;
#X connect 2 0 7 0;
#X connect 2 1 4 0;
#X connect 2 2 3 0;
#X connect 3 0 7 0;
#X connect 4 0 6 0;
#X connect 5 0 6 0;
#X connect 7 0 5 0;
#X restore 482 402 pd trig;
#X obj 39 45 tgl 15 0 empty empty empty 17 7 0 10 #fcfcfc #000000 #000000 0 1;
#X obj 38 85 j-metro 120;
#X obj 38 118 s ticks;
#X obj 422 175 r ticks;
#X floatatom 120 382 5 0 0 0 - - - 0;
#X floatatom 131 52 5 0 0 0 - - - 0;
#X msg 731 621 cGain \$1;
#X obj 734 571 hsl 128 15 0 127 0 0 empty empty empty -2 -8 0 10 #fcfcfc #000000 #000000 0 1;
#X obj 731 591 / 127;
#X obj 234 134 r ticks;
#X msg 279 91 length \$1;
#X floatatom 279 65 5 0 0 0 - - - 0;
#X msg 356 42 syncStart;
#X msg 603 176 length \$1;
#X floatatom 623 142 5 0 0 0 - - - 0;
#X msg 495 133 syncStart;
#X msg 299 345 gate \$1;
#X obj 423 208 j-tick-counter 4;
#X msg 528 161 freeStart;
#X msg 220 434 freqB \$1;
#X floatatom 747 480 5 0 0 0 - - - 0;
#X msg 747 510 freqC \$1;
#X obj 482 340 t b b;
#N canvas 92 117 450 300 trig 0;
#X obj 57 31 inlet;
#X text 102 32 bang;
#X obj 57 55 t b b b;
#X msg 108 82 stop;
#X obj 131 161 i 1;
#X obj 54 178 i 0;
#X obj 54 202 outlet;
#X obj 54 154 del 10;
#X connect 0 0 2 0;
#X connect 2 0 7 0;
#X connect 2 1 4 0;
#X connect 2 2 3 0;
#X connect 3 0 7 0;
#X connect 4 0 6 0;
#X connect 5 0 6 0;
#X connect 7 0 5 0;
#X restore 299 319 pd trig;
#X obj 1004 300 * 360;
#X floatatom 1004 324 5 0 0 0 - - - 0;
#X floatatom 1004 242 5 0 0 0 - - - 0;
#X obj 422 238 sel 0 270 540 1260;
#N canvas 441 108 994 764 click-clone 0;
#X obj 204 229 i;
#X obj 249 228 + 1;
#X obj 249 252 == 1;
#X obj 60 283 route 0 1, f 31;
#X obj 60 231 list prepend;
#X obj 60 255 list trim;
#X obj 61 21 inlet;
#X obj 61 165 t a a;
#X obj 204 203 t b;
#X obj 60 445 j_kick~;
#X obj 83 519 +~;
#X obj 407 217 inlet;
#X text 455 217 messages;
#X obj 407 241 t a a;
#X obj 233 499 +~;
#X obj 60 307 t a b b, f 11;
#X obj 210 317 t a b b;
#X obj 233 573 *~;
#X obj 346 475 vline~;
#X obj 346 447 pack 0 3;
#X obj 83 570 *~;
#X obj 164 534 vline~;
#X obj 164 506 pack 0 3;
#X obj 148 334 i 0;
#X obj 118 335 i 1;
#X obj 233 355 i 1;
#X obj 302 371 i 0;
#X obj 83 664 outlet~;
#X obj 265 188 sel 1;
#X obj 210 425 j_kick~;
#X obj 75 99 list prepend bassGate;
#X obj 193 158 unpack s 0;
#X obj 33 132 list prepend clickGate;
#X obj 61 62 route clickGate bassGate gate;
#X obj 243 100 list prepend gate;
#X connect 0 0 1 0;
#X connect 0 0 4 1;
#X connect 1 0 2 0;
#X connect 2 0 0 1;
#X connect 3 0 15 0;
#X connect 3 1 16 0;
#X connect 4 0 5 0;
#X connect 5 0 3 0;
#X connect 6 0 33 0;
#X connect 7 0 4 0;
#X connect 7 1 31 0;
#X connect 8 0 0 0;
#X connect 9 1 10 0;
#X connect 9 2 10 1;
#X connect 10 0 20 0;
#X connect 11 0 13 0;
#X connect 13 0 9 0;
#X connect 13 1 29 0;
#X connect 14 0 17 0;
#X connect 15 0 9 0;
#X connect 15 1 24 0;
#X connect 15 2 23 0;
#X connect 16 0 29 0;
#X connect 16 1 25 0;
#X connect 16 2 26 0;
#X connect 17 0 27 0;
#X connect 18 0 17 1;
#X connect 19 0 18 0;
#X connect 20 0 27 0;
#X connect 21 0 20 1;
#X connect 22 0 21 0;
#X connect 23 0 19 0;
#X connect 24 0 22 0;
#X connect 25 0 19 0;
#X connect 26 0 22 0;
#X connect 28 0 8 0;
#X connect 29 1 14 0;
#X connect 29 2 14 1;
#X connect 30 0 7 0;
#X connect 31 1 28 0;
#X connect 32 0 4 0;
#X connect 33 0 32 0;
#X connect 33 1 30 0;
#X connect 33 2 34 0;
#X connect 34 0 7 0;
#X restore 324 429 pd click-clone;
#X obj 519 311 bng 15 250 50 0 empty empty empty 17 7 0 10 #fcfcfc #000000 #000000;
#N canvas 63 88 994 764 click-clone 0;
#X obj 204 229 i;
#X obj 249 228 + 1;
#X obj 249 252 == 1;
#X obj 60 283 route 0 1, f 31;
#X obj 60 231 list prepend;
#X obj 60 255 list trim;
#X obj 61 21 inlet;
#X obj 61 165 t a a;
#X obj 204 203 t b;
#X obj 60 445 j_kick~;
#X obj 83 519 +~;
#X obj 407 217 inlet;
#X text 455 217 messages;
#X obj 407 241 t a a;
#X obj 233 499 +~;
#X obj 60 307 t a b b, f 11;
#X obj 210 317 t a b b;
#X obj 233 573 *~;
#X obj 346 475 vline~;
#X obj 83 570 *~;
#X obj 164 534 vline~;
#X obj 148 334 i 0;
#X obj 118 335 i 1;
#X obj 233 355 i 1;
#X obj 302 371 i 0;
#X obj 83 664 outlet~;
#X obj 265 188 sel 1;
#X floatatom 197 257 5 0 0 0 - - - 0;
#X obj 210 425 j_kick~;
#X obj 193 158 unpack s 0;
#X obj 346 447 pack 0 9;
#X obj 164 506 pack 0 9;
#X connect 0 0 1 0;
#X connect 0 0 4 1;
#X connect 0 0 27 0;
#X connect 1 0 2 0;
#X connect 2 0 0 1;
#X connect 3 0 15 0;
#X connect 3 1 16 0;
#X connect 4 0 5 0;
#X connect 5 0 3 0;
#X connect 6 0 7 0;
#X connect 7 0 4 0;
#X connect 7 1 29 0;
#X connect 8 0 0 0;
#X connect 9 1 10 0;
#X connect 9 2 10 1;
#X connect 10 0 19 0;
#X connect 11 0 13 0;
#X connect 13 0 9 0;
#X connect 13 1 28 0;
#X connect 14 0 17 0;
#X connect 15 0 9 0;
#X connect 15 1 22 0;
#X connect 15 2 21 0;
#X connect 16 0 28 0;
#X connect 16 1 23 0;
#X connect 16 2 24 0;
#X connect 17 0 25 0;
#X connect 18 0 17 1;
#X connect 19 0 25 0;
#X connect 20 0 19 1;
#X connect 21 0 30 0;
#X connect 22 0 31 0;
#X connect 23 0 30 0;
#X connect 24 0 31 0;
#X connect 26 0 8 0;
#X connect 28 1 14 0;
#X connect 28 2 14 1;
#X connect 29 1 26 0;
#X connect 30 0 18 0;
#X connect 31 0 20 0;
#X restore 495 506 pd click-clone;
#X obj 378 653 hip~ 200;
#X obj 386 494 max~;
#X obj 418 453 sig~ 0;
#X obj 386 518 min~;
#X obj 433 517 *~ 0.5;
#X obj 433 541 +~ 0.5;
#X obj 584 298 del 112;
#X obj 578 338 t b b;
#X floatatom 186 365 5 0 0 0 - - - 0;
#X msg 186 395 freqC \$1;
#X obj 222 283 bng 15 250 50 0 empty empty empty 17 7 0 10 #fcfcfc #000000 #000000;
#X msg 39 514 cGain \$1;
#X obj 42 464 hsl 128 15 0 127 0 0 empty empty empty -2 -8 0 10 #fcfcfc #000000 #000000 0 1;
#X obj 39 484 / 127;
#X msg 179 328 240;
#X msg 109 334 55;
#X obj 828 52 swap 60000;
#X obj 828 76 /;
#X floatatom 828 100 5 0 0 0 - - - 0;
#X obj 828 163 swap 1000;
#X obj 828 187 /;
#X floatatom 828 211 5 0 0 0 - - - 0;
#X obj 828 123 * 1;
#X obj 375 303 bng 15 250 50 0 empty empty empty 17 7 0 10 #fcfcfc #000000 #000000;
#X obj 433 565 *~ 0.5;
#X msg 70 330 120;
#X obj 433 589 +~ 0.05;
#N canvas 441 108 994 764 click-clone 0;
#X obj 204 229 i;
#X obj 249 228 + 1;
#X obj 249 252 == 1;
#X obj 60 283 route 0 1, f 31;
#X obj 60 231 list prepend;
#X obj 60 255 list trim;
#X obj 61 21 inlet;
#X obj 61 165 t a a;
#X obj 204 203 t b;
#X obj 60 445 j_kick~;
#X obj 83 519 +~;
#X obj 407 217 inlet;
#X text 455 217 messages;
#X obj 407 241 t a a;
#X obj 233 499 +~;
#X obj 60 307 t a b b, f 11;
#X obj 210 317 t a b b;
#X obj 233 573 *~;
#X obj 346 475 vline~;
#X obj 346 447 pack 0 3;
#X obj 83 570 *~;
#X obj 164 534 vline~;
#X obj 164 506 pack 0 3;
#X obj 148 334 i 0;
#X obj 118 335 i 1;
#X obj 233 355 i 1;
#X obj 302 371 i 0;
#X obj 83 664 outlet~;
#X obj 265 188 sel 1;
#X floatatom 197 257 5 0 0 0 - - - 0;
#X obj 210 425 j_kick~;
#X obj 75 99 list prepend bassGate;
#X obj 193 158 unpack s 0;
#X obj 33 132 list prepend clickGate;
#X obj 61 62 route clickGate bassGate gate;
#X obj 243 100 list prepend gate;
#X connect 0 0 1 0;
#X connect 0 0 4 1;
#X connect 0 0 29 0;
#X connect 1 0 2 0;
#X connect 2 0 0 1;
#X connect 3 0 15 0;
#X connect 3 1 16 0;
#X connect 4 0 5 0;
#X connect 5 0 3 0;
#X connect 6 0 34 0;
#X connect 7 0 4 0;
#X connect 7 1 32 0;
#X connect 8 0 0 0;
#X connect 9 1 10 0;
#X connect 9 2 10 1;
#X connect 10 0 20 0;
#X connect 11 0 13 0;
#X connect 13 0 9 0;
#X connect 13 1 30 0;
#X connect 14 0 17 0;
#X connect 15 0 9 0;
#X connect 15 1 24 0;
#X connect 15 2 23 0;
#X connect 16 0 30 0;
#X connect 16 1 25 0;
#X connect 16 2 26 0;
#X connect 17 0 27 0;
#X connect 18 0 17 1;
#X connect 19 0 18 0;
#X connect 20 0 27 0;
#X connect 21 0 20 1;
#X connect 22 0 21 0;
#X connect 23 0 19 0;
#X connect 24 0 22 0;
#X connect 25 0 19 0;
#X connect 26 0 22 0;
#X connect 28 0 8 0;
#X connect 30 1 14 0;
#X connect 30 2 14 1;
#X connect 31 0 7 0;
#X connect 32 1 28 0;
#X connect 33 0 4 0;
#X connect 34 0 33 0;
#X connect 34 1 31 0;
#X connect 34 2 35 0;
#X connect 35 0 7 0;
#X restore 115 573 pd click-clone;
#X msg 140 525 bassGate \$1;
#N canvas 92 117 450 300 trig 0;
#X obj 57 31 inlet;
#X text 102 32 bang;
#X obj 57 55 t b b b;
#X msg 108 82 stop;
#X obj 131 161 i 1;
#X obj 54 178 i 0;
#X obj 54 202 outlet;
#X obj 54 154 del 10;
#X connect 0 0 2 0;
#X connect 2 0 7 0;
#X connect 2 1 4 0;
#X connect 2 2 3 0;
#X connect 3 0 7 0;
#X connect 4 0 6 0;
#X connect 5 0 6 0;
#X connect 7 0 5 0;
#X restore 156 498 pd trig;
#X obj 610 368 i 45;
#X msg 833 16 140;
#X obj 750 113 / 4;
#X floatatom 750 137 5 0 0 0 - - - 0;
#X obj 234 195 sel 0;
#X obj 527 709 *~;
#X obj 641 658 hsl 128 15 0 127 0 0 empty empty empty -2 -8 0 10 #fcfcfc #000000 #000000 0 1;
#X obj 638 678 / 127;
#X obj 514 370 i 80, f 6;
#X msg 179 709 open -bytes 3 new.wav;
#X obj 259 748 writesf~ 2;
#X msg 105 731 start;
#X msg 122 749 stop;
#X obj 664 212 declare -path ../lib;
#X msg 895 334 vel 0;
#X msg 761 320 vel 90;
#X obj 691 310 bng 19 250 50 0 empty empty empty 0 -10 0 12 #fcfcfc #000000 #000000;
#X msg 867 293 speed \$1;
#X obj 913 193 hsl 162 19 0 127 0 0 empty empty empty -2 -10 0 12 #fcfcfc #000000 #000000 0 1;
#X obj 912 216 / 127;
#X obj 912 240 * 4;
#X obj 912 264 - 2;
#X obj 234 163 j-tick-counter 2;
#X obj 692 270 t b b;
#X obj 673 349 tgl 19 0 empty empty empty 0 -10 0 12 #fcfcfc #000000 #000000 0 1;
#X obj 673 373 sel 0 1;
#X msg 893 374 adsr 1 125 0.6 40;
#X obj 747 381 del-freeze~ 112 1;
#X obj 745 281 del 113;
#X obj 900 430 bng 19 250 50 0 empty empty empty 0 -10 0 12 #fcfcfc #000000 #000000;
#X msg 953 437 freeze;
#X msg 962 505 stop;
#X obj 804 443 adc~ 1 2;
#X obj 575 731 *~;
#X obj 607 693 lop~ 5;
#X obj 1128 439 bng 19 250 50 0 empty empty empty 0 -10 0 12 #fcfcfc #000000 #000000;
#X msg 1181 446 freeze;
#X msg 1190 514 stop;
#X obj 1032 452 adc~ 1 2;
#X obj 1125 339 r ticks;
#X obj 1125 363 sel 0;
#X obj 1153 390 sel 90;
#X msg 972 605 speed \$1;
#X obj 1027 493 hsl 162 19 0 127 0 0 empty empty empty -2 -10 0 12 #fcfcfc #000000 #000000 0 1;
#X obj 1024 517 / 127;
#X obj 1024 541 * 4;
#X obj 1024 565 - 2;
#X msg 975 559 1;
#X obj 134 638 *~ 0.46;
#X obj 890 639 freeze-trig~ 333 1;
#X obj 347 584 *~ 0.37;
#X obj 1188 492 del 250;
#X obj 1118 649 freeze-trig~ 250 1;
#X obj 960 483 del 333;
#X obj 47 146 r ticks;
#X obj 143 16 route free-start sync-start stop;
#X msg 84 257 sync-start;
#X msg 107 228 stop;
#X msg 112 24 120;
#X obj 78 290 t b;
#X obj -11 677 r ticks;
#X msg 26 788 sync-start;
#X msg 49 759 stop;
#X obj 36 623 t b;
#X floatatom 0 232 5 0 0 0 - - - 0;
#X obj 433 493 osc~ 45;
#X obj -11 725 seq-module 1;
#X msg 70 678 1 1 1 1;
#X msg 114 137 1 2 _ 6 _ _ 6 7;
#X msg 136 92 1 2 2 6 2 2 6 7;
#X obj 33 290 * 10;
#X obj 33 314 + 30;
#X msg 256 494 freqB \$1;
#X floatatom 25 354 5 0 0 0 - - - 0;
#X obj 47 194 seq-module 1;
#X msg 164 199 1 2 3 4;
#X connect 1 0 33 0;
#X connect 2 0 35 0;
#X connect 3 0 1 0;
#X connect 4 0 2 0;
#X connect 5 0 6 0;
#X connect 6 0 7 0;
#X connect 8 0 22 0;
#X connect 9 0 24 0;
#X connect 10 0 6 1;
#X connect 11 0 35 1;
#X connect 12 0 13 0;
#X connect 13 0 11 0;
#X connect 14 0 88 0;
#X connect 15 0 88 1;
#X connect 16 0 15 0;
#X connect 17 0 22 1;
#X connect 17 0 88 1;
#X connect 18 0 22 1;
#X connect 19 0 18 0;
#X connect 20 0 22 1;
#X connect 22 0 32 0;
#X connect 23 0 22 1;
#X connect 24 0 33 1;
#X connect 24 0 63 1;
#X connect 25 0 26 0;
#X connect 26 0 35 1;
#X connect 27 0 4 0;
#X connect 27 1 74 0;
#X connect 28 0 21 0;
#X connect 29 0 30 0;
#X connect 31 0 29 0;
#X connect 32 0 3 0;
#X connect 32 0 65 0;
#X connect 32 0 89 0;
#X connect 32 0 95 0;
#X connect 32 1 3 0;
#X connect 32 1 42 0;
#X connect 32 2 3 0;
#X connect 32 2 101 0;
#X connect 32 2 95 0;
#X connect 32 2 65 0;
#X connect 32 3 3 0;
#X connect 32 3 42 0;
#X connect 32 3 95 0;
#X connect 32 3 101 0;
#X connect 34 0 27 0;
#X connect 35 0 93 0;
#X connect 35 0 36 0;
#X connect 36 0 71 0;
#X connect 37 0 39 0;
#X connect 38 0 37 1;
#X connect 39 0 116 0;
#X connect 40 0 41 0;
#X connect 41 0 60 0;
#X connect 42 0 43 0;
#X connect 43 1 66 0;
#X connect 44 0 45 0;
#X connect 45 0 33 1;
#X connect 45 0 63 1;
#X connect 46 0 28 0;
#X connect 47 0 33 1;
#X connect 48 0 49 0;
#X connect 49 0 47 0;
#X connect 50 0 44 0;
#X connect 51 0 9 0;
#X connect 52 0 53 0;
#X connect 52 1 53 1;
#X connect 53 0 54 0;
#X connect 54 0 58 0;
#X connect 54 0 68 0;
#X connect 55 0 56 0;
#X connect 55 1 56 1;
#X connect 56 0 57 0;
#X connect 58 0 55 0;
#X connect 58 0 42 1;
#X connect 59 0 3 0;
#X connect 60 0 62 0;
#X connect 62 0 39 1;
#X connect 63 0 114 0;
#X connect 64 0 63 0;
#X connect 65 0 64 0;
#X connect 66 0 25 0;
#X connect 67 0 52 0;
#X connect 68 0 69 0;
#X connect 70 0 27 0;
#X connect 71 0 0 0;
#X connect 71 0 76 0;
#X connect 71 0 76 1;
#X connect 71 0 0 1;
#X connect 72 0 73 0;
#X connect 73 0 100 0;
#X connect 74 0 25 0;
#X connect 75 0 76 0;
#X connect 77 0 76 0;
#X connect 78 0 76 0;
#X connect 80 0 93 0;
#X connect 81 0 93 0;
#X connect 82 0 90 0;
#X connect 83 0 93 0;
#X connect 84 0 85 0;
#X connect 85 0 86 0;
#X connect 86 0 87 0;
#X connect 87 0 83 0;
#X connect 88 0 70 0;
#X connect 89 0 82 0;
#X connect 89 1 93 0;
#X connect 90 0 91 0;
#X connect 91 0 80 0;
#X connect 91 1 94 0;
#X connect 92 0 93 0;
#X connect 94 0 81 0;
#X connect 95 0 115 0;
#X connect 95 0 119 0;
#X connect 96 0 115 0;
#X connect 97 0 115 0;
#X connect 98 0 115 0;
#X connect 99 0 0 1;
#X connect 100 0 71 1;
#X connect 100 0 99 1;
#X connect 101 0 117 0;
#X connect 101 0 118 0;
#X connect 102 0 118 0;
#X connect 103 0 118 0;
#X connect 104 0 118 0;
#X connect 105 0 106 0;
#X connect 105 0 107 0;
#X connect 107 0 101 0;
#X connect 108 0 115 0;
#X connect 108 0 118 0;
#X connect 109 0 110 0;
#X connect 110 0 111 0;
#X connect 111 0 112 0;
#X connect 112 0 108 0;
#X connect 113 0 108 0;
#X connect 114 0 71 0;
#X connect 115 0 71 0;
#X connect 116 0 36 0;
#X connect 117 0 103 0;
#X connect 118 0 71 0;
#X connect 119 0 97 0;
#X connect 120 0 140 0;
#X connect 122 0 140 0;
#X connect 123 0 140 0;
#X connect 124 0 6 1;
#X connect 125 0 4 0;
#X connect 126 0 132 0;
#X connect 127 0 132 0;
#X connect 128 0 132 0;
#X connect 129 0 65 0;
#X connect 131 0 40 0;
#X connect 132 0 129 0;
#X connect 133 0 132 1;
#X connect 134 0 140 1;
#X connect 135 0 140 1;
#X connect 136 0 137 0;
#X connect 137 0 138 0;
#X connect 137 0 139 0;
#X connect 138 0 63 1;
#X connect 140 0 125 0;
#X connect 140 0 136 0;
#X connect 141 0 140 1;
