#N canvas 717 261 682 467 12;
#X obj 56 19 inlet;
#X text 101 18 note;
#X obj 132 128 list prepend gain;
#X obj 25 183 list prepend freq;
#X obj 208 157 list prepend gate;
#X obj 133 237 list trim;
#X obj 56 72 unpack 0 0 0, f 22;
#X obj 56 96 mtof;
#X obj 131 100 / 127;
#X obj 516 15 inlet~;
#X obj 242 351 outlet~;
#X obj 133 306 R_MODE_LFO_MONO~;
#X obj 301 15 inlet;
#X obj 301 99 route select;
#X obj 301 123 list prepend selector;
#X connect 0 0 6 0;
#X connect 2 0 5 0;
#X connect 3 0 5 0;
#X connect 4 0 5 0;
#X connect 5 0 11 0;
#X connect 6 0 7 0;
#X connect 6 1 8 0;
#X connect 6 2 4 0;
#X connect 7 0 3 0;
#X connect 8 0 2 0;
#X connect 9 0 11 1;
#X connect 11 1 10 0;
#X connect 12 0 13 0;
#X connect 13 0 14 0;
#X connect 14 0 5 0;
