#N canvas 127 221 1313 651 12;
#X declare -path ../lib;
#X obj 95 122 tgl 15 0 empty empty empty 17 7 0 10 #fcfcfc #000000 #000000 0 1;
#X obj 94 195 s ticks;
#X floatatom 187 129 5 0 0 0 - - - 0;
#X obj 32 25 declare -path ../lib;
#X msg 532 56 sync-start;
#X msg 538 83 stop;
#X obj 492 28 r ticks;
#X obj 76 239 r ticks;
#X obj 225 209 hsl 128 15 0 127 0 0 empty empty empty -2 -8 0 10 #fcfcfc #000000 #000000 0 1;
#X obj 223 236 / 127;
#X obj 498 445 *~;
#X obj 223 264 lop~ 5;
#X obj 633 614 dac~ 1 2;
#X obj 55 398 *~ 0.1;
#X obj 55 422 *~, f 11;
#X obj 130 356 vline~;
#X msg 129 329 1 8 \, 0 50 8;
#X obj 94 162 metro360 120;
#X obj 497 384 *~, f 11;
#X obj 572 299 vline~;
#X obj 527 206 t b;
#X floatatom 371 119 5 0 0 0 - - - 0;
#X obj 509 237 osc~ 1000;
#X obj 497 301 *~ 0.03;
#X obj 371 143 * 100;
#X obj 371 167 + 100;
#X obj 572 323 *~;
#X obj 130 380 *~;
#X obj 440 219 osc~ 1000;
#X obj 440 243 *~ 0.025;
#X msg 625 64 1 1 1 2 2 3 3 4 5 5 6.2 9 8.05;
#X msg 913 97 sync-start;
#X msg 919 124 stop;
#X obj 873 69 r ticks;
#X obj 927 388 *~, f 11;
#X obj 1002 303 vline~;
#X obj 957 210 t b;
#X obj 838 287 osc~ 1000;
#X obj 848 323 *~ 0.03;
#X obj 774 211 * 100;
#X obj 774 235 + 100;
#X obj 1002 327 *~;
#X obj 870 223 osc~ 1000;
#X msg 1009 190 1 2 3 4;
#X obj 673 549 rev3~ 100 90 3000 20;
#X obj 870 247 *~ 0.01;
#X obj 738 322 osc~ 1000;
#X obj 738 346 *~ 0.007;
#X msg 1012 240 _ 1 _ 3 3 3 2 3 4 4;
#X msg 1080 201 2 2 1 1 2 3 4 4;
#X msg 1006 105 1 1 1 2 2 3 3 4 3 5 3 2 3;
#X obj 875 198 *~ 2.01;
#X obj 743 297 *~ 3;
#X obj 445 194 /~ 1.5;
#X obj 774 259 lop~ 120;
#X msg 1025 150 _ 1 1 2 2 4 2 3 4 4 5;
#X obj 880 153 seq-module 0.25;
#X obj 500 112 seq-module 0.25;
#X obj 55 374 osc~ 400;
#X msg 618 114 1 1 1 2 2 3 4 4;
#X msg 628 150 9 9 9 9 9 9 9;
#X msg 746 127 1 1 1 2 2 3 4 4;
#X msg 579 186 1 2 3;
#X msg 630 208 1 2 3 4;
#X msg 1001 276 1 12 \, 0.2 12 120 \, 0 400 240;
#X floatatom 1002 8 5 0 0 0 - - - 0;
#X obj 1081 61;
#X msg 1004 59 beat \$1;
#X msg 581 22 beat \$1;
#X floatatom 648 13 5 0 0 0 - - - 0;
#X msg 156 102 80;
#X obj 435 346 *~;
#X msg 1054 22 1 3 1 2 2 3 3 4 1 5 3 1 3 9;
#X obj 949 327 *~;
#X obj 76 290 sel 0 180;
#X msg 571 272 1 12 \, 0 12 240 \, 0 100 36;
#X connect 0 0 17 0;
#X connect 2 0 17 1;
#X connect 4 0 56 0;
#X connect 4 0 57 0;
#X connect 5 0 57 0;
#X connect 6 0 57 0;
#X connect 7 0 74 0;
#X connect 8 0 9 0;
#X connect 9 0 11 0;
#X connect 10 0 12 0;
#X connect 10 0 12 1;
#X connect 10 0 44 0;
#X connect 10 0 44 1;
#X connect 11 0 10 1;
#X connect 13 0 14 0;
#X connect 14 0 10 0;
#X connect 15 0 27 0;
#X connect 15 0 27 1;
#X connect 16 0 15 0;
#X connect 17 0 1 0;
#X connect 18 0 10 0;
#X connect 19 0 26 0;
#X connect 19 0 26 1;
#X connect 20 0 75 0;
#X connect 21 0 24 0;
#X connect 22 0 23 0;
#X connect 22 0 71 1;
#X connect 23 0 18 0;
#X connect 24 0 25 0;
#X connect 25 0 22 0;
#X connect 25 0 53 0;
#X connect 26 0 18 1;
#X connect 27 0 14 1;
#X connect 28 0 29 0;
#X connect 29 0 18 0;
#X connect 29 0 71 0;
#X connect 30 0 57 1;
#X connect 31 0 56 0;
#X connect 32 0 56 0;
#X connect 33 0 56 0;
#X connect 34 0 10 0;
#X connect 35 0 41 0;
#X connect 35 0 41 1;
#X connect 36 0 64 0;
#X connect 37 0 38 0;
#X connect 37 0 73 0;
#X connect 38 0 34 0;
#X connect 39 0 40 0;
#X connect 40 0 54 0;
#X connect 41 0 34 1;
#X connect 42 0 45 0;
#X connect 43 0 56 1;
#X connect 44 0 12 0;
#X connect 44 1 12 1;
#X connect 45 0 73 1;
#X connect 46 0 47 0;
#X connect 47 0 34 0;
#X connect 48 0 56 1;
#X connect 49 0 56 1;
#X connect 50 0 56 1;
#X connect 51 0 42 0;
#X connect 52 0 46 0;
#X connect 53 0 28 0;
#X connect 54 0 37 0;
#X connect 54 0 51 0;
#X connect 54 0 52 0;
#X connect 55 0 56 1;
#X connect 56 0 36 0;
#X connect 56 0 39 0;
#X connect 57 0 21 0;
#X connect 57 0 20 0;
#X connect 58 0 13 0;
#X connect 59 0 57 1;
#X connect 60 0 57 1;
#X connect 62 0 57 1;
#X connect 63 0 57 0;
#X connect 64 0 35 0;
#X connect 65 0 67 0;
#X connect 67 0 56 0;
#X connect 68 0 57 0;
#X connect 69 0 68 0;
#X connect 70 0 17 1;
#X connect 71 0 18 0;
#X connect 72 0 56 1;
#X connect 73 0 34 0;
#X connect 74 0 16 0;
#X connect 74 1 16 0;
#X connect 75 0 19 0;
