#N canvas 101 102 1313 725 12;
#X declare -path ../lib;
#X obj 166 63 tgl 15 0 empty empty empty 17 7 0 10 #fcfcfc #000000 #000000 0 1;
#X obj 165 136 s ticks;
#X floatatom 258 70 5 0 0 0 - - - 0;
#X obj 32 25 declare -path ../lib;
#X msg 532 56 sync-start;
#X msg 538 83 stop;
#X obj 492 28 r ticks;
#X obj 339 400 hsl 128 15 0 127 0 0 empty empty empty -2 -8 0 10 #fcfcfc #000000 #000000 0 1;
#X obj 337 427 / 127;
#X obj 498 445 *~;
#X obj 337 455 lop~ 5;
#X obj 633 614 dac~ 1 2;
#X obj 55 422 *~, f 11;
#X obj 130 356 vline~;
#X obj 165 103 metro360 120;
#X obj 497 384 *~, f 11;
#X obj 572 299 vline~;
#X obj 527 206 t b;
#X obj 348 265 osc~ 1000;
#X obj 497 301 *~ 0.03;
#X obj 371 143 * 100;
#X obj 371 167 + 100;
#X obj 572 323 *~;
#X obj 130 380 *~;
#X obj 440 219 osc~ 1000;
#X obj 440 243 *~ 0.025;
#X msg 625 64 1 1 1 2 2 3 3 4 5 5 6.2 9 8.05;
#X msg 913 97 sync-start;
#X msg 919 124 stop;
#X obj 873 69 r ticks;
#X obj 927 388 *~, f 11;
#X obj 1002 303 vline~;
#X obj 957 210 t b;
#X obj 838 287 osc~ 1000;
#X obj 848 323 *~ 0.03;
#X obj 763 168 * 100;
#X obj 763 192 + 100;
#X obj 1002 327 *~;
#X obj 870 223 osc~ 1000;
#X obj 673 549 rev3~ 100 90 3000 20;
#X obj 870 247 *~ 0.01;
#X obj 755 299 osc~ 1000;
#X obj 755 323 *~ 0.007;
#X msg 1012 240 _ 1 _ 3 3 3 2 3 4 4;
#X msg 1080 201 2 2 1 1 2 3 4 4;
#X msg 1006 105 1 1 1 2 2 3 3 4 3 5 3 2 3;
#X msg 1025 150 _ 1 1 2 2 4 2 3 4 4 5;
#X obj 500 112 seq-module 0.25;
#X msg 618 114 1 1 1 2 2 3 4 4;
#X msg 628 150 9 9 9 9 9 9 9;
#X msg 746 127 1 1 1 2 2 3 4 4;
#X msg 579 186 1 2 3;
#X msg 630 208 1 2 3 4;
#X floatatom 1002 8 5 0 0 0 - - - 0;
#X obj 1081 61;
#X msg 1004 59 beat \$1;
#X msg 581 22 beat \$1;
#X floatatom 648 13 5 0 0 0 - - - 0;
#X msg 227 43 80;
#X obj 435 346 *~;
#X msg 1054 22 1 3 1 2 2 3 3 4 1 5 3 1 3 9;
#X obj 898 568 *~;
#X msg 571 272 1 12 \, 0 12 240 \, 0 100 36;
#X obj 208 365 hsl 128 15 0 127 0 0 empty empty empty -2 -8 0 10 #fcfcfc #000000 #000000 0 1;
#X obj 206 392 / 127;
#X obj 206 420 lop~ 5;
#X obj 55 446 *~;
#X obj 55 398 *~ 0.5;
#X obj 113 525 vline~;
#X obj 113 549 *~;
#X obj 438 538 *~ 1;
#X msg 129 329 1 8 \, 0 150 8;
#X msg 284 42 1 1 2 _ 4 2 _ 4 4 _;
#X obj 20 81 seq-module 0.25;
#X obj 20 50 r ticks;
#X msg 82 184 _ 1 1 2 _ 4 2 _ 4 4 _;
#X msg 42 122 sync-start;
#X obj 30 288 t b b a;
#X msg 112 498 1 3 \, 0 5 3;
#X msg 1001 276 1 12 \, 0.2 12 800 \, 0 10 800;
#X obj 117 626 osc~ 79;
#X obj 112 684 *~ 1;
#X obj 113 573 *~ 900;
#X obj 763 216 lop~ 2000;
#X obj 760 274 *~ 0.5;
#X obj 360 232 *~ 1;
#X obj 113 597 +~ 66, f 13;
#X obj 875 198 *~ 3;
#X obj 1039 457 osc~ 1000;
#X obj 1044 432 *~ 7;
#X obj 1039 481 *~ 0.01;
#X msg 55 151 stop;
#X msg 38 213 1 _ _ 1 _ _ 1 _ _ 1 _ _ _ 1;
#X obj 880 153 seq-module 0.5;
#X msg 1009 190 1 2 3;
#X obj 474 153 lop~ 5;
#X obj 445 194 /~;
#X obj 296 98 hsl 162 19 0 127 0 0 empty empty empty -2 -10 0 12 #fcfcfc #000000 #000000 0 1;
#X obj 293 122 / 127;
#X obj 293 146 * 4.5;
#X obj 117 650 clip~ -0.9 1;
#X obj 226 537 * 10;
#X obj 226 561 + 40;
#X connect 0 0 14 0;
#X connect 2 0 14 1;
#X connect 4 0 47 0;
#X connect 4 0 93 0;
#X connect 5 0 47 0;
#X connect 6 0 47 0;
#X connect 7 0 8 0;
#X connect 8 0 10 0;
#X connect 9 0 11 0;
#X connect 9 0 11 1;
#X connect 9 0 39 0;
#X connect 9 0 39 1;
#X connect 10 0 9 1;
#X connect 12 0 66 0;
#X connect 13 0 23 0;
#X connect 13 0 23 1;
#X connect 14 0 1 0;
#X connect 15 0 9 0;
#X connect 16 0 22 0;
#X connect 16 0 22 1;
#X connect 17 0 62 0;
#X connect 18 0 19 0;
#X connect 18 0 59 1;
#X connect 19 0 15 0;
#X connect 20 0 21 0;
#X connect 21 0 85 0;
#X connect 21 0 96 0;
#X connect 22 0 15 1;
#X connect 23 0 12 1;
#X connect 24 0 25 0;
#X connect 25 0 15 0;
#X connect 25 0 59 0;
#X connect 26 0 47 1;
#X connect 27 0 93 0;
#X connect 28 0 93 0;
#X connect 29 0 93 0;
#X connect 30 0 9 0;
#X connect 31 0 37 0;
#X connect 31 0 37 1;
#X connect 32 0 79 0;
#X connect 33 0 34 0;
#X connect 34 0 30 0;
#X connect 35 0 36 0;
#X connect 36 0 83 0;
#X connect 37 0 30 1;
#X connect 38 0 40 0;
#X connect 39 0 11 0;
#X connect 39 1 11 1;
#X connect 40 0 30 0;
#X connect 40 0 61 0;
#X connect 41 0 42 0;
#X connect 42 0 30 0;
#X connect 43 0 93 1;
#X connect 44 0 93 1;
#X connect 45 0 93 1;
#X connect 46 0 93 1;
#X connect 47 0 17 0;
#X connect 47 0 20 0;
#X connect 48 0 47 1;
#X connect 49 0 47 1;
#X connect 50 0 47 1;
#X connect 51 0 47 1;
#X connect 52 0 47 1;
#X connect 53 0 55 0;
#X connect 55 0 93 0;
#X connect 56 0 47 0;
#X connect 57 0 56 0;
#X connect 58 0 14 1;
#X connect 59 0 15 0;
#X connect 60 0 93 1;
#X connect 61 0 30 0;
#X connect 62 0 16 0;
#X connect 63 0 64 0;
#X connect 64 0 65 0;
#X connect 65 0 66 1;
#X connect 66 0 70 0;
#X connect 67 0 12 0;
#X connect 68 0 69 0;
#X connect 68 0 69 1;
#X connect 69 0 82 0;
#X connect 70 0 11 0;
#X connect 70 0 11 1;
#X connect 71 0 13 0;
#X connect 72 0 47 1;
#X connect 73 0 77 0;
#X connect 74 0 73 0;
#X connect 75 0 73 1;
#X connect 76 0 73 0;
#X connect 77 0 78 0;
#X connect 77 1 71 0;
#X connect 77 2 101 0;
#X connect 78 0 68 0;
#X connect 79 0 31 0;
#X connect 80 0 100 0;
#X connect 81 0 67 0;
#X connect 82 0 86 0;
#X connect 83 0 33 0;
#X connect 83 0 84 0;
#X connect 83 0 87 0;
#X connect 83 0 89 0;
#X connect 84 0 41 0;
#X connect 85 0 18 0;
#X connect 86 0 80 0;
#X connect 87 0 38 0;
#X connect 88 0 90 0;
#X connect 88 0 61 1;
#X connect 89 0 88 0;
#X connect 90 0 30 0;
#X connect 91 0 73 0;
#X connect 92 0 73 1;
#X connect 93 0 32 0;
#X connect 93 0 35 0;
#X connect 94 0 93 1;
#X connect 95 0 96 1;
#X connect 96 0 24 0;
#X connect 97 0 98 0;
#X connect 98 0 99 0;
#X connect 99 0 95 0;
#X connect 100 0 81 0;
#X connect 101 0 102 0;
#X connect 102 0 86 1;
