#N canvas 268 56 995 742 12;
#X obj 371 121 r \$0-vel;
#X obj 508 207 r \$0-att;
#X obj 610 216 r \$0-dec;
#X obj 720 211 r \$0-sus;
#X obj 45 35 inlet;
#X text 87 36 vel;
#X obj 158 38 inlet;
#X obj 244 37 inlet;
#X obj 324 37 inlet;
#X obj 410 36 inlet;
#X obj 158 65 s \$0-att;
#X obj 244 64 s \$0-dec;
#X obj 324 64 s \$0-sus;
#X obj 410 63 s \$0-rel;
#X obj 98 142 s \$0-vel;
#X obj 45 83 sel -1 0;
#X obj 98 114 clip 0 1;
#X obj 45 217 s \$0-duck;
#X obj 71 176 s \$0-release;
#X msg 371 378 0 0 \, \$1 \$2 0 \, \$4 \$3 \$2;
#X obj 371 492 vline~;
#X obj 371 516 outlet~;
#X obj 171 320 r \$0-release;
#X obj 371 336 pack 0 0 0 0, f 48;
#X obj 196 350 r \$0-rel;
#X msg 171 412 0 \$1;
#X obj 418 408 r \$0-duck;
#X msg 418 432 0 8;
#X obj 371 165 t a b b b, f 46;
#X obj 607 411 r \$0-release;
#X obj 625 436 r \$0-duck;
#X obj 607 530 del, f 11;
#X msg 639 496 stop;
#X obj 681 497 r \$0-rel;
#X obj 607 465 t b b;
#X obj 754 420 r \$0-vel;
#X obj 754 444 t b;
#X obj 607 554 outlet;
#X text 662 555 bang when done;
#X obj 171 383 f \$4;
#X obj 491 235 f \$1;
#X obj 593 244 f \$2;
#X obj 703 239 f \$3;
#X text 568 47 Simple adsr~;
#X connect 0 0 28 0;
#X connect 1 0 40 1;
#X connect 2 0 41 1;
#X connect 3 0 42 1;
#X connect 4 0 15 0;
#X connect 6 0 10 0;
#X connect 7 0 11 0;
#X connect 8 0 12 0;
#X connect 9 0 13 0;
#X connect 15 0 17 0;
#X connect 15 1 18 0;
#X connect 15 2 16 0;
#X connect 16 0 14 0;
#X connect 19 0 20 0;
#X connect 20 0 21 0;
#X connect 22 0 39 0;
#X connect 23 0 19 0;
#X connect 24 0 39 1;
#X connect 25 0 20 0;
#X connect 26 0 27 0;
#X connect 27 0 20 0;
#X connect 28 0 23 0;
#X connect 28 1 40 0;
#X connect 28 2 41 0;
#X connect 28 3 42 0;
#X connect 29 0 34 0;
#X connect 30 0 34 0;
#X connect 31 0 37 0;
#X connect 32 0 31 0;
#X connect 33 0 31 1;
#X connect 34 0 31 0;
#X connect 34 1 32 0;
#X connect 35 0 36 0;
#X connect 36 0 32 0;
#X connect 39 0 25 0;
#X connect 40 0 23 1;
#X connect 41 0 23 2;
#X connect 42 0 23 3;
