#N canvas 0 236 871 612 12;
#X text 114 25 audio;
#X text 552 15 arg 1 : time in ms;
#X obj 28 220 tabwrite~ \$0-array;
#N canvas 776 170 450 300 capture 0;
#X obj 81 139 delay \$1, f 16;
#X msg 122 90 stop;
#X msg 69 218 stop;
#X obj 40 250 outlet;
#X obj 209 270 outlet;
#X text 259 267 play;
#X obj 190 105 r \$0-chunk;
#X obj 164 72 s \$0-stop;
#X obj 81 168 t b b, f 22;
#X obj 41 11 r \$0-freeze;
#X obj 210 237 i 1, f 4;
#X obj 266 229 i 0, f 4;
#X obj 39 40 t b b b b b, f 27;
#X obj 160 11 inlet;
#X connect 0 0 8 0;
#X connect 1 0 0 0;
#X connect 2 0 3 0;
#X connect 6 0 0 1;
#X connect 8 0 10 0;
#X connect 8 1 2 0;
#X connect 9 0 12 0;
#X connect 10 0 4 0;
#X connect 11 0 4 0;
#X connect 12 0 3 0;
#X connect 12 1 0 0;
#X connect 12 2 1 0;
#X connect 12 3 7 0;
#X connect 12 4 11 0;
#X connect 13 0 12 0;
#X restore 53 128 pd capture;
#X f 16;
#N canvas 0 25 735 300 messages 0;
#X obj 37 37 inlet;
#X obj 85 200 s \$0-chunk;
#X obj 130 175 s \$0-stop;
#X obj 200 151 s \$0-speed;
#N canvas 63 88 450 300 adsr 0;
#X obj 58 16 inlet;
#X obj 58 52 unpack 0 0 0 0;
#X obj 41 147 s \$0-ampA;
#X obj 106 124 s \$0-ampD;
#X obj 138 146 s \$0-ampS;
#X obj 203 123 s \$0-ampR;
#X connect 0 0 1 0;
#X connect 1 0 2 0;
#X connect 1 1 3 0;
#X connect 1 2 4 0;
#X connect 1 3 5 0;
#X restore 221 118 pd adsr;
#X obj 302 142 s \$0-freeze;
#X obj 21 165 s \$0-noteVel;
#X obj 37 70 route vel chunk stop speed adsr freeze freezeFire;
#X obj 330 105 s \$0-freezeFire;
#X connect 0 0 7 0;
#X connect 7 0 6 0;
#X connect 7 1 1 0;
#X connect 7 2 2 0;
#X connect 7 3 3 0;
#X connect 7 4 4 0;
#X connect 7 5 5 0;
#X connect 7 6 8 0;
#X restore 95 56 pd messages;
#X obj 28 24 inlet~ fwd;
#X obj 182 543 outlet~;
#N canvas 0 25 489 534 play 0;
#X obj 26 16 inlet;
#X text 74 17 bang;
#X obj 26 90 f 1;
#X obj 60 91 + 1;
#X obj 60 115 == 1;
#X obj 26 164 t a a, f 25;
#X obj 26 188 == 0;
#X obj 26 347 outlet~;
#X obj 216 156 0;
#X obj 216 180 t a a;
#X obj 218 107 r \$0-stop;
#N canvas 0 25 670 696 play-chunk 0;
#X obj 27 449 tabread4~ \$0-array;
#X obj 26 341 phasor~;
#X obj 27 533 *~, f 21;
#X obj 171 391 -~ 0.5;
#X obj 171 415 *~ 0.5;
#X obj 171 442 cos~;
#X text 151 198 calculate hz for ms chunk;
#X obj 26 185 f \$1;
#X obj 26 254 swap 1000;
#X obj 26 278 /, f 9;
#X obj 147 279 0;
#X obj 27 557 *~, f 33;
#X obj 255 437 vline~;
#X obj 255 461 sqrt~;
#X obj 255 407 pack 0 3;
#X obj 26 151 t b b f, f 31;
#X obj 26 94 1;
#X obj 25 46 sel 1 0, f 73;
#X obj 256 269 0;
#X obj 25 13 inlet;
#X text 76 12 on or off;
#X obj 27 621 outlet~;
#X msg 412 134 stop;
#X obj 380 219 switch~;
#X obj 380 188 0;
#X obj 380 164 del 3;
#X obj 25 70 t b b b, f 15;
#X obj 348 188 1;
#X obj 356 98 t b b b;
#X obj 27 581 hip~ 5;
#X obj 26 209 t a a, f 8;
#X obj 121 314 * 44.1;
#X obj 26 389 +~ 1;
#X obj 121 338 - 2;
#X obj 26 366 *~, f 14;
#X obj 139 221 r \$0-speed;
#X obj 139 245 t b a;
#X obj 171 500 clip~ 0 1;
#X obj 171 466 *~ 10;
#X obj 71 179 r \$0-chunk;
#X obj 26 302 * \$2, f 10;
#X connect 0 0 2 0;
#X connect 1 0 3 0;
#X connect 1 0 34 0;
#X connect 2 0 11 0;
#X connect 3 0 4 0;
#X connect 4 0 5 0;
#X connect 5 0 38 0;
#X connect 7 0 30 0;
#X connect 8 0 9 0;
#X connect 8 1 9 1;
#X connect 9 0 40 0;
#X connect 10 0 1 1;
#X connect 11 0 29 0;
#X connect 12 0 13 0;
#X connect 13 0 11 1;
#X connect 14 0 12 0;
#X connect 15 0 7 0;
#X connect 15 1 10 0;
#X connect 15 2 14 0;
#X connect 16 0 15 0;
#X connect 17 0 26 0;
#X connect 17 1 28 0;
#X connect 18 0 14 0;
#X connect 19 0 17 0;
#X connect 22 0 25 0;
#X connect 24 0 23 0;
#X connect 25 0 24 0;
#X connect 26 0 16 0;
#X connect 26 1 27 0;
#X connect 26 2 22 0;
#X connect 27 0 23 0;
#X connect 28 0 18 0;
#X connect 28 1 25 0;
#X connect 28 2 22 0;
#X connect 29 0 21 0;
#X connect 30 0 8 0;
#X connect 30 1 31 0;
#X connect 31 0 33 0;
#X connect 32 0 0 0;
#X connect 33 0 34 1;
#X connect 34 0 32 0;
#X connect 35 0 36 0;
#X connect 36 0 40 0;
#X connect 36 1 40 1;
#X connect 37 0 2 1;
#X connect 38 0 37 0;
#X connect 39 0 7 1;
#X connect 40 0 1 0;
#X restore 196 266 pd play-chunk;
#N canvas 0 25 670 696 play-chunk 0;
#X obj 27 449 tabread4~ \$0-array;
#X obj 26 341 phasor~;
#X obj 27 533 *~, f 21;
#X obj 171 391 -~ 0.5;
#X obj 171 415 *~ 0.5;
#X obj 171 442 cos~;
#X text 151 198 calculate hz for ms chunk;
#X obj 26 185 f \$1;
#X obj 26 254 swap 1000;
#X obj 26 278 /, f 9;
#X obj 147 279 0;
#X obj 27 557 *~, f 33;
#X obj 255 437 vline~;
#X obj 255 461 sqrt~;
#X obj 255 407 pack 0 3;
#X obj 26 151 t b b f, f 31;
#X obj 26 94 1;
#X obj 25 46 sel 1 0, f 73;
#X obj 256 269 0;
#X obj 25 13 inlet;
#X text 76 12 on or off;
#X obj 27 621 outlet~;
#X msg 412 134 stop;
#X obj 380 219 switch~;
#X obj 380 188 0;
#X obj 380 164 del 3;
#X obj 25 70 t b b b, f 15;
#X obj 348 188 1;
#X obj 356 98 t b b b;
#X obj 27 581 hip~ 5;
#X obj 26 209 t a a, f 8;
#X obj 121 314 * 44.1;
#X obj 26 389 +~ 1;
#X obj 121 338 - 2;
#X obj 26 366 *~, f 14;
#X obj 139 221 r \$0-speed;
#X obj 139 245 t b a;
#X obj 171 500 clip~ 0 1;
#X obj 171 466 *~ 10;
#X obj 71 179 r \$0-chunk;
#X obj 26 302 * \$2, f 10;
#X connect 0 0 2 0;
#X connect 1 0 3 0;
#X connect 1 0 34 0;
#X connect 2 0 11 0;
#X connect 3 0 4 0;
#X connect 4 0 5 0;
#X connect 5 0 38 0;
#X connect 7 0 30 0;
#X connect 8 0 9 0;
#X connect 8 1 9 1;
#X connect 9 0 40 0;
#X connect 10 0 1 1;
#X connect 11 0 29 0;
#X connect 12 0 13 0;
#X connect 13 0 11 1;
#X connect 14 0 12 0;
#X connect 15 0 7 0;
#X connect 15 1 10 0;
#X connect 15 2 14 0;
#X connect 16 0 15 0;
#X connect 17 0 26 0;
#X connect 17 1 28 0;
#X connect 18 0 14 0;
#X connect 19 0 17 0;
#X connect 22 0 25 0;
#X connect 24 0 23 0;
#X connect 25 0 24 0;
#X connect 26 0 16 0;
#X connect 26 1 27 0;
#X connect 26 2 22 0;
#X connect 27 0 23 0;
#X connect 28 0 18 0;
#X connect 28 1 25 0;
#X connect 28 2 22 0;
#X connect 29 0 21 0;
#X connect 30 0 8 0;
#X connect 30 1 31 0;
#X connect 31 0 33 0;
#X connect 32 0 0 0;
#X connect 33 0 34 1;
#X connect 34 0 32 0;
#X connect 35 0 36 0;
#X connect 36 0 40 0;
#X connect 36 1 40 1;
#X connect 37 0 2 1;
#X connect 38 0 37 0;
#X connect 39 0 7 1;
#X connect 40 0 1 0;
#X restore 26 271 pd play-chunk;
#X connect 0 0 2 0;
#X connect 2 0 3 0;
#X connect 2 0 5 0;
#X connect 3 0 4 0;
#X connect 4 0 2 1;
#X connect 5 0 6 0;
#X connect 5 1 11 0;
#X connect 6 0 12 0;
#X connect 8 0 9 0;
#X connect 9 0 12 0;
#X connect 9 1 11 0;
#X connect 10 0 8 0;
#X connect 11 0 7 0;
#X connect 12 0 7 0;
#X restore 182 426 pd play;
#N canvas 561 52 468 360 envelope 0;
#X obj 31 223 outlet~;
#X obj 31 15 inlet;
#X obj 31 187 *~;
#X obj 31 117 sqrt;
#X obj 31 88 / 127;
#X obj 93 57 r \$0-ampA;
#X obj 128 94 r \$0-ampD;
#X obj 213 69 r \$0-ampS;
#X obj 232 104 r \$0-ampR;
#X obj 31 147 adsr~, f 29;
#X obj 231 204 s \$0-stop;
#X obj 83 13 r $-offNote;
#X obj 83 37 i 0;
#X connect 1 0 4 0;
#X connect 2 0 0 0;
#X connect 3 0 9 0;
#X connect 4 0 3 0;
#X connect 5 0 9 1;
#X connect 6 0 9 2;
#X connect 7 0 9 3;
#X connect 8 0 9 4;
#X connect 9 0 2 0;
#X connect 9 0 2 1;
#X connect 9 1 10 0;
#X connect 11 0 12 0;
#X connect 12 0 4 0;
#X restore 270 425 pd envelope;
#X obj 182 480 *~, f 13;
#X obj 202 41 r \$0-fb;
#X obj 202 104 spigot, f 10;
#X obj 201 199 del \$1, f 10;
#X obj 268 168 r \$0-chunk;
#X obj 576 341 s \$0-start-loop;
#X obj 269 44 r \$0-start-loop;
#X obj 300 80 r \$0-stop;
#X obj 300 114 t b b;
#X msg 232 143 stop;
#X obj 242 390 s \$0-fb;
#X obj 332 139 i 0;
#X obj 269 68 i 0;
#X obj 182 365 t b b, f 9;
#X obj 452 269 t b a b, f 17;
#X text 553 45 arg 2 : default playback speed;
#X obj 364 206 spigot 0;
#X obj 364 162 r \$0-noteVel;
#X obj 364 230 sel 0, f 13;
#X obj 364 268 s $-offNote;
#X obj 53 97 r \$0-freezeFire;
#X obj 484 494 array define \$0-array 88200;
#X connect 3 0 2 0;
#X connect 3 1 25 1;
#X connect 5 0 2 0;
#X connect 5 1 4 0;
#X connect 7 0 9 0;
#X connect 8 0 9 1;
#X connect 9 0 6 0;
#X connect 10 0 11 0;
#X connect 11 0 12 0;
#X connect 12 0 22 0;
#X connect 13 0 12 1;
#X connect 15 0 21 0;
#X connect 16 0 17 0;
#X connect 17 0 18 0;
#X connect 17 1 20 0;
#X connect 18 0 12 0;
#X connect 20 0 11 1;
#X connect 21 0 11 1;
#X connect 22 0 7 0;
#X connect 22 1 19 0;
#X connect 23 0 22 0;
#X connect 23 1 8 0;
#X connect 23 2 14 0;
#X connect 25 0 27 0;
#X connect 26 0 25 0;
#X connect 27 0 28 0;
#X connect 27 1 23 0;
#X connect 29 0 3 0;
