#N canvas 63 88 865 662 12;
#X obj 85 26 inlet;
#X obj 85 50 t a a;
#X obj 117 80 stripnote;
#X obj 117 104 t b;
#X obj 155 130 + 1;
#X obj 117 128 i 1;
#X obj 155 154 == 1;
#X obj 79 187 list prepend;
#X obj 79 211 list trim;
#X obj 134 449 outlet~;
#X obj 215 451 outlet~;
#X obj 80 288 t a b;
#X obj 174 284 t a b;
#X obj 79 235 route 0 1, f 27;
#X obj 295 128 inlet;
#X text 449 87 Arg1: voice~;
#X text 335 127 all messages;
#X text 127 27 incoming note;
#X text 412 16 poly duck approach to avoid clicks with synth voices;
#X text 410 36 *** 0ms latency but for 8ms on the attack you have 2 processes going.;
#X obj 190 359 \$2, f 14;
#X obj 79 359 \$2, f 10;
#X connect 0 0 1 0;
#X connect 1 0 7 0;
#X connect 1 1 2 0;
#X connect 2 0 3 0;
#X connect 3 0 5 0;
#X connect 4 0 6 0;
#X connect 5 0 4 0;
#X connect 5 0 7 1;
#X connect 6 0 5 1;
#X connect 7 0 8 0;
#X connect 8 0 13 0;
#X connect 11 0 21 0;
#X connect 11 1 20 1;
#X connect 12 0 20 0;
#X connect 12 1 21 1;
#X connect 13 0 11 0;
#X connect 13 1 12 0;
#X connect 14 0 21 2;
#X connect 14 0 20 2;
#X connect 20 0 9 0;
#X connect 20 1 10 0;
#X connect 21 0 9 0;
#X connect 21 1 10 0;
