#N canvas 350 86 1090 620 12;
#X text 114 25 audio;
#X text 552 15 arg 1 : time in ms;
#N canvas 414 175 1026 697 capture 0;
#X obj 242 220 delay \$1, f 16;
#X msg 293 122 stop;
#X msg 231 374 stop;
#X obj 201 411 outlet;
#X obj 392 400 outlet;
#X obj 351 156 r \$0-chunk;
#X obj 200 91 t b b b b b, f 27;
#X obj 200 58 inlet;
#X obj 100 54 inlet~;
#X obj 99 259 *~;
#X obj 117 229 vline~;
#X obj 117 198 pack 0 5;
#X obj 99 302 outlet~;
#X obj 386 117 i 1;
#X obj 351 180 - 5;
#X obj 392 289 del 5;
#X text 442 397 flip samples;
#X obj 392 313 t b b;
#X obj 242 259 t b b, f 22;
#X obj 241 290 i 0;
#X connect 0 0 18 0;
#X connect 1 0 0 0;
#X connect 1 0 15 0;
#X connect 2 0 3 0;
#X connect 5 0 14 0;
#X connect 6 0 3 0;
#X connect 6 1 0 0;
#X connect 6 2 1 0;
#X connect 6 4 13 0;
#X connect 7 0 6 0;
#X connect 8 0 9 0;
#X connect 9 0 12 0;
#X connect 10 0 9 1;
#X connect 11 0 10 0;
#X connect 13 0 11 0;
#X connect 14 0 0 1;
#X connect 15 0 17 0;
#X connect 17 0 4 0;
#X connect 17 1 2 0;
#X connect 18 0 19 0;
#X connect 18 1 15 0;
#X connect 19 0 11 0;
#X restore 53 128 pd capture;
#X f 16;
#N canvas 397 142 735 300 messages 0;
#X obj 37 37 inlet;
#X obj 87 211 s \$0-chunk;
#X obj 137 178 s \$0-speed;
#X obj 187 151 s \$0-freeze;
#X obj 38 243 s \$0-trig;
#X obj 37 70 route bang chunk speed freeze stop;
#X obj 216 113 s \$0-stop;
#X connect 0 0 5 0;
#X connect 5 0 4 0;
#X connect 5 1 1 0;
#X connect 5 2 2 0;
#X connect 5 3 3 0;
#X connect 5 4 6 0;
#X restore 95 56 pd messages;
#X obj 28 24 inlet~ fwd;
#X obj 258 523 outlet~;
#N canvas 0 25 489 534 play 0;
#X obj 26 16 inlet;
#X text 74 17 bang;
#X obj 26 90 f 1;
#X obj 60 91 + 1;
#X obj 60 115 == 1;
#X obj 26 164 t a a, f 25;
#X obj 26 188 == 0;
#X obj 26 347 outlet~;
#X obj 216 156 0;
#X obj 216 180 t a a;
#X obj 218 107 r \$0-stop;
#N canvas 0 25 670 696 play-chunk 0;
#X obj 26 341 phasor~;
#X obj 27 533 *~, f 21;
#X obj 171 391 -~ 0.5;
#X obj 171 415 *~ 0.5;
#X obj 171 442 cos~;
#X text 151 198 calculate hz for ms chunk;
#X obj 26 185 f \$1;
#X obj 26 254 swap 1000;
#X obj 26 278 /, f 9;
#X obj 147 279 0;
#X obj 27 557 *~, f 33;
#X obj 255 437 vline~;
#X obj 255 461 sqrt~;
#X obj 26 151 t b b f, f 31;
#X obj 26 94 1;
#X obj 25 46 sel 1 0, f 73;
#X obj 256 269 0;
#X obj 25 13 inlet;
#X text 76 12 on or off;
#X obj 27 621 outlet~;
#X msg 412 134 stop;
#X obj 380 219 switch~;
#X obj 380 188 0;
#X obj 348 188 1;
#X obj 356 98 t b b b;
#X obj 27 581 hip~ 5;
#X obj 26 209 t a a, f 8;
#X obj 121 314 * 44.1;
#X obj 26 389 +~ 1;
#X obj 121 338 - 2;
#X obj 26 366 *~, f 14;
#X obj 139 221 r \$0-speed;
#X obj 139 245 t b a;
#X obj 171 500 clip~ 0 1;
#X obj 171 466 *~ 10;
#X obj 71 179 r \$0-chunk;
#X obj 26 302 * \$2, f 10;
#X obj 387 367 v \$0-point;
#X obj 387 391 + 1;
#X obj 387 475 list prepend set;
#X obj 387 499 list trim;
#X obj 25 70 t b b b b, f 35;
#X obj 27 449 tabread4~ \$0-array1;
#X obj 387 422 makefilename \$0-array%d;
#X obj 380 164 del 5;
#X obj 255 407 pack 0 5;
#X connect 0 0 2 0;
#X connect 0 0 30 0;
#X connect 1 0 10 0;
#X connect 2 0 3 0;
#X connect 3 0 4 0;
#X connect 4 0 34 0;
#X connect 6 0 26 0;
#X connect 7 0 8 0;
#X connect 7 1 8 1;
#X connect 8 0 36 0;
#X connect 9 0 0 1;
#X connect 10 0 25 0;
#X connect 11 0 12 0;
#X connect 12 0 10 1;
#X connect 13 0 6 0;
#X connect 13 1 9 0;
#X connect 13 2 45 0;
#X connect 14 0 13 0;
#X connect 15 0 41 0;
#X connect 15 1 24 0;
#X connect 16 0 45 0;
#X connect 17 0 15 0;
#X connect 20 0 44 0;
#X connect 22 0 21 0;
#X connect 23 0 21 0;
#X connect 24 0 16 0;
#X connect 24 1 44 0;
#X connect 24 2 20 0;
#X connect 25 0 19 0;
#X connect 26 0 7 0;
#X connect 26 1 27 0;
#X connect 27 0 29 0;
#X connect 28 0 42 0;
#X connect 29 0 30 1;
#X connect 30 0 28 0;
#X connect 31 0 32 0;
#X connect 32 0 36 0;
#X connect 32 1 36 1;
#X connect 33 0 1 1;
#X connect 34 0 33 0;
#X connect 35 0 6 1;
#X connect 36 0 0 0;
#X connect 37 0 38 0;
#X connect 38 0 43 0;
#X connect 39 0 40 0;
#X connect 40 0 42 0;
#X connect 41 0 14 0;
#X connect 41 1 23 0;
#X connect 41 2 20 0;
#X connect 41 3 37 0;
#X connect 42 0 1 0;
#X connect 43 0 39 0;
#X connect 44 0 22 0;
#X connect 45 0 11 0;
#X restore 26 271 pd play-chunk;
#N canvas 0 25 670 696 play-chunk 0;
#X obj 26 341 phasor~;
#X obj 27 533 *~, f 21;
#X obj 171 391 -~ 0.5;
#X obj 171 415 *~ 0.5;
#X obj 171 442 cos~;
#X text 151 198 calculate hz for ms chunk;
#X obj 26 185 f \$1;
#X obj 26 254 swap 1000;
#X obj 26 278 /, f 9;
#X obj 147 279 0;
#X obj 27 557 *~, f 33;
#X obj 255 437 vline~;
#X obj 255 461 sqrt~;
#X obj 26 151 t b b f, f 31;
#X obj 26 94 1;
#X obj 25 46 sel 1 0, f 73;
#X obj 256 269 0;
#X obj 25 13 inlet;
#X text 76 12 on or off;
#X obj 27 621 outlet~;
#X msg 412 134 stop;
#X obj 380 219 switch~;
#X obj 380 188 0;
#X obj 348 188 1;
#X obj 356 98 t b b b;
#X obj 27 581 hip~ 5;
#X obj 26 209 t a a, f 8;
#X obj 121 314 * 44.1;
#X obj 26 389 +~ 1;
#X obj 121 338 - 2;
#X obj 26 366 *~, f 14;
#X obj 139 221 r \$0-speed;
#X obj 139 245 t b a;
#X obj 171 500 clip~ 0 1;
#X obj 171 466 *~ 10;
#X obj 71 179 r \$0-chunk;
#X obj 26 302 * \$2, f 10;
#X obj 387 367 v \$0-point;
#X obj 387 391 + 1;
#X obj 387 475 list prepend set;
#X obj 387 499 list trim;
#X obj 25 70 t b b b b, f 35;
#X obj 27 449 tabread4~ \$0-array1;
#X obj 387 422 makefilename \$0-array%d;
#X obj 380 164 del 5;
#X obj 255 407 pack 0 5;
#X connect 0 0 2 0;
#X connect 0 0 30 0;
#X connect 1 0 10 0;
#X connect 2 0 3 0;
#X connect 3 0 4 0;
#X connect 4 0 34 0;
#X connect 6 0 26 0;
#X connect 7 0 8 0;
#X connect 7 1 8 1;
#X connect 8 0 36 0;
#X connect 9 0 0 1;
#X connect 10 0 25 0;
#X connect 11 0 12 0;
#X connect 12 0 10 1;
#X connect 13 0 6 0;
#X connect 13 1 9 0;
#X connect 13 2 45 0;
#X connect 14 0 13 0;
#X connect 15 0 41 0;
#X connect 15 1 24 0;
#X connect 16 0 45 0;
#X connect 17 0 15 0;
#X connect 20 0 44 0;
#X connect 22 0 21 0;
#X connect 23 0 21 0;
#X connect 24 0 16 0;
#X connect 24 1 44 0;
#X connect 24 2 20 0;
#X connect 25 0 19 0;
#X connect 26 0 7 0;
#X connect 26 1 27 0;
#X connect 27 0 29 0;
#X connect 28 0 42 0;
#X connect 29 0 30 1;
#X connect 30 0 28 0;
#X connect 31 0 32 0;
#X connect 32 0 36 0;
#X connect 32 1 36 1;
#X connect 33 0 1 1;
#X connect 34 0 33 0;
#X connect 35 0 6 1;
#X connect 36 0 0 0;
#X connect 37 0 38 0;
#X connect 38 0 43 0;
#X connect 39 0 40 0;
#X connect 40 0 42 0;
#X connect 41 0 14 0;
#X connect 41 1 23 0;
#X connect 41 2 20 0;
#X connect 41 3 37 0;
#X connect 42 0 1 0;
#X connect 43 0 39 0;
#X connect 44 0 22 0;
#X connect 45 0 11 0;
#X restore 195 263 pd play-chunk;
#X connect 0 0 2 0;
#X connect 2 0 3 0;
#X connect 2 0 5 0;
#X connect 3 0 4 0;
#X connect 4 0 2 1;
#X connect 5 0 6 0;
#X connect 5 1 12 0;
#X connect 6 0 11 0;
#X connect 8 0 9 0;
#X connect 9 0 11 0;
#X connect 9 1 12 0;
#X connect 10 0 8 0;
#X connect 11 0 7 0;
#X connect 12 0 7 0;
#X restore 258 406 pd play;
#X text 553 45 arg 2 : default playback speed;
#X obj 485 522 array define \$0-array2 88200;
#X obj 484 494 array define \$0-array1 88200;
#X obj 239 172 v \$0-point;
#X obj 239 205 == 0;
#X obj 239 229 v \$0-point;
#X obj 162 92 r \$0-freeze;
#X obj 258 367 r \$0-trig;
#X obj 258 470 hip~ 5;
#X obj 139 183 v \$0-point;
#X obj 139 237 + 1;
#X obj 139 301 list prepend set;
#X obj 139 325 list trim;
#X obj 45 377 tabwrite~ \$0-array1;
#X obj 139 207 == 0;
#X obj 139 268 makefilename \$0-array%d;
#X obj 107 157 t a b;
#X connect 2 0 20 0;
#X connect 2 1 23 0;
#X connect 2 2 10 0;
#X connect 4 0 2 0;
#X connect 4 1 3 0;
#X connect 6 0 15 0;
#X connect 10 0 11 0;
#X connect 11 0 12 0;
#X connect 13 0 2 1;
#X connect 14 0 6 0;
#X connect 15 0 5 0;
#X connect 16 0 21 0;
#X connect 17 0 22 0;
#X connect 18 0 19 0;
#X connect 19 0 20 0;
#X connect 21 0 17 0;
#X connect 22 0 18 0;
#X connect 23 0 20 0;
#X connect 23 1 16 0;
