#N canvas 121 146 777 567 12;
#X obj 62 18 inlet;
#X text 116 22 ON/OFF 1 - 0;
#X obj 279 21 inlet;
#X text 327 23 BPM;
#X obj 62 243 metro;
#X obj 279 110 swap 60000;
#X obj 279 139 /, f 10;
#X text 159 421 generates 360 ticks per beat;
#X obj 279 163 / 360;
#X obj 62 431 outlet;
#X obj 62 42 t a a;
#X obj 115 86 sel 1;
#X obj 279 45 f \$1;
#X text 419 63 Arg 1: default bpm;
#X obj 62 292 i;
#X obj 140 287 + 1;
#X obj 62 345 t a a;
#X obj 62 321 expr if($f1 >= 360 \, 0 \, $f1);
#X connect 0 0 10 0;
#X connect 2 0 12 0;
#X connect 4 0 14 0;
#X connect 5 0 6 0;
#X connect 5 1 6 1;
#X connect 6 0 8 0;
#X connect 8 0 4 1;
#X connect 10 0 4 0;
#X connect 10 1 11 0;
#X connect 11 0 12 0;
#X connect 12 0 5 0;
#X connect 14 0 17 0;
#X connect 15 0 14 1;
#X connect 16 0 9 0;
#X connect 16 1 15 0;
#X connect 17 0 16 0;
