#N canvas 0 25 720 847 12;
#X obj 504 384 list length;
#X obj 479 250 t a a;
#X obj 306 716 list store;
#X obj 19 33 inlet;
#X text 60 36 ticks;
#X obj 240 623 list store;
#X obj 505 409 s \$0-len;
#X obj 241 529 sel 0;
#X obj 477 175 inlet;
#X text 520 176 list;
#X obj 240 671 list split 1, f 39;
#X obj 272 785 outlet;
#X obj 272 567 t b;
#X obj 240 746 sel _;
#X text 250 85 ticks;
#X obj 41 194 s \$0-start/stop;
#X obj 23 114 i 1;
#X obj 76 113 i 2;
#X obj 113 141 i 0;
#X obj 331 33 r \$0-start/stop;
#X obj 241 277 t b;
#N canvas 599 273 552 329 tick-counter 0;
#X obj 225 87 f \$1;
#X obj 225 116 * 360;
#X obj 32 22 inlet;
#X obj 39 285 outlet;
#X obj 83 23 inlet;
#X obj 39 247 sel 0;
#X obj 39 117 i;
#X obj 117 112 + 1;
#X obj 39 186 expr if($f1 >= $f2 \, 0 \, $f1);
#X obj 39 210 t a a;
#X obj 149 19 r \$0-beat;
#X obj 225 18 r \$0-start/stop;
#X obj 225 42 t b;
#X floatatom 325 141 5 0 0 0 - - - 0;
#X floatatom 118 227 5 0 0 0 - - - 0;
#X obj 225 154 max 1;
#X floatatom 166 61 5 0 0 0 - - - 0;
#X connect 0 0 1 0;
#X connect 1 0 13 0;
#X connect 1 0 15 0;
#X connect 2 0 6 0;
#X connect 4 0 6 1;
#X connect 5 0 3 0;
#X connect 6 0 8 0;
#X connect 7 0 6 1;
#X connect 8 0 9 0;
#X connect 9 0 5 0;
#X connect 9 1 7 0;
#X connect 9 1 14 0;
#X connect 10 0 0 0;
#X connect 10 0 16 0;
#X connect 11 0 12 0;
#X connect 12 0 0 0;
#X connect 15 0 8 1;
#X restore 241 328 pd tick-counter;
#X text 95 0 Arg1: base beat in beats;
#X obj 363 84 s \$0-reset-ticks;
#X obj 382 345 i 0;
#X obj 382 321 r \$0-reset-loop;
#X obj 357 255 r \$0-reset-ticks;
#X obj 343 300 i 0;
#N canvas 599 273 552 329 loop-counter 0;
#X obj 32 22 inlet;
#X obj 39 245 outlet;
#X obj 83 23 inlet;
#X obj 39 117 i;
#X obj 117 112 + 1;
#X obj 39 146 expr if($f1 >= $f2 \, 0 \, $f1);
#X obj 39 170 t a a;
#X obj 223 67 r \$0-len;
#X connect 0 0 3 0;
#X connect 2 0 3 1;
#X connect 3 0 5 0;
#X connect 4 0 3 1;
#X connect 5 0 6 0;
#X connect 6 0 1 0;
#X connect 6 1 4 0;
#X connect 7 0 5 1;
#X restore 241 403 pd loop-counter;
#X obj 407 109 s \$0-reset-loop;
#N canvas 577 264 450 300 start/stop 1;
#X obj 32 10 inlet;
#X obj 163 14 inlet;
#X obj 163 38 sel 0 1 2, f 30;
#X obj 32 227 spigot;
#X obj 163 62 i 0;
#X obj 188 149 s \$0-valve;
#X obj 106 186 r \$0-valve;
#X obj 231 63 i 1;
#X obj 32 52 t a a;
#X obj 64 87 spigot;
#X obj 64 111 sel 359;
#X obj 64 162 i 1;
#X obj 64 135 t b b;
#X obj 135 104 i 0;
#X obj 187 118 t a b;
#X obj 300 151 s \$0-sync;
#X obj 81 21 r \$0-sync;
#X obj 300 72 t b b;
#X obj 300 96 i 1;
#X obj 340 130 s \$0-valve;
#X obj 335 100 i 0;
#X obj 32 251 outlet;
#X obj 169 238 outlet;
#X connect 0 0 8 0;
#X connect 1 0 2 0;
#X connect 2 0 4 0;
#X connect 2 1 7 0;
#X connect 2 2 17 0;
#X connect 3 0 21 0;
#X connect 4 0 14 0;
#X connect 6 0 3 1;
#X connect 7 0 14 0;
#X connect 8 0 3 0;
#X connect 8 1 9 0;
#X connect 9 0 10 0;
#X connect 10 0 12 0;
#X connect 11 0 3 1;
#X connect 12 0 11 0;
#X connect 12 1 13 0;
#X connect 12 1 22 0;
#X connect 13 0 9 1;
#X connect 14 0 5 0;
#X connect 14 1 13 1;
#X connect 16 0 9 1;
#X connect 17 0 18 0;
#X connect 17 1 20 0;
#X connect 18 0 15 0;
#X connect 20 0 19 0;
#X restore 243 142 pd start/stop;
#X obj 331 57 t a b b, f 11;
#X obj 184 111 s \$0-beat;
#X obj 20 56 route free-start sync-start stop beat;
#X floatatom 190 175 5 0 0 0 - - - 0;
#X connect 0 0 6 0;
#X connect 1 0 5 1;
#X connect 1 1 0 0;
#X connect 2 0 10 0;
#X connect 3 0 33 0;
#X connect 5 0 10 0;
#X connect 7 0 5 0;
#X connect 7 1 12 0;
#X connect 8 0 1 0;
#X connect 10 0 13 0;
#X connect 10 1 2 1;
#X connect 12 0 2 0;
#X connect 13 1 11 0;
#X connect 16 0 15 0;
#X connect 17 0 15 0;
#X connect 18 0 15 0;
#X connect 19 0 31 0;
#X connect 20 0 21 0;
#X connect 21 0 28 0;
#X connect 24 0 28 1;
#X connect 25 0 24 0;
#X connect 26 0 27 0;
#X connect 27 0 21 1;
#X connect 28 0 7 0;
#X connect 30 0 20 0;
#X connect 30 1 27 0;
#X connect 31 0 30 1;
#X connect 31 1 23 0;
#X connect 31 2 29 0;
#X connect 33 0 16 0;
#X connect 33 1 17 0;
#X connect 33 2 18 0;
#X connect 33 3 32 0;
#X connect 33 3 34 0;
#X connect 33 4 30 0;
