#N canvas 161 28 1279 804 12;
#X declare -path ../lib;
#X obj 20 12 declare -path ../lib;
#N canvas 348 113 1092 443 pipe-1 0;
#X obj 98 318 outlet~;
#X obj 98 277 *~ 0.5;
#X obj 367 124 until;
#X obj 365 73 t a b;
#X obj 381 168 f;
#X obj 425 169 + 1;
#X obj 365 97 max 1;
#X msg 365 51 128;
#X obj 423 134 i 1;
#X obj 381 296 pack 0 0 0, f 20;
#X obj 427 226 mtof;
#X obj 381 192 t a a b, f 14;
#X obj 497 247 i 3;
#X msg 380 351 \; freq-\$1 \$2 \$3;
#X msg 268 226 vis 50 1;
#N canvas 468 337 753 393 the-stops 0;
#X obj 51 11 inlet;
#X obj 91 60 unpack, f 31;
#X obj 88 276 pack 0 0, f 34;
#X obj 29 305 outlet;
#X floatatom 479 128 5 0 0 0 - - - 0;
#X obj 479 151 mtof;
#X floatatom 479 175 5 0 0 0 - - - 0;
#X msg 513 102 50;
#X floatatom 551 237 5 0 0 0 - - - 0;
#X obj 551 260 ftom;
#X floatatom 551 284 5 0 0 0 - - - 0;
#X obj 551 213 * 7;
#X obj 91 114 t a a a a a a a, f 39;
#X obj 89 190 + 0;
#X obj 249 194 - 12;
#X connect 0 0 1 0;
#X connect 0 0 3 0;
#X connect 1 0 12 0;
#X connect 1 1 2 1;
#X connect 2 0 3 0;
#X connect 4 0 5 0;
#X connect 5 0 6 0;
#X connect 6 0 11 0;
#X connect 7 0 5 0;
#X connect 8 0 9 0;
#X connect 9 0 10 0;
#X connect 11 0 8 0;
#X connect 12 0 13 0;
#X connect 12 3 2 0;
#X connect 12 3 14 0;
#X connect 13 0 2 0;
#X connect 14 0 2 0;
#X restore 182 160 pd the-stops;
#X obj 98 253 clone -s 1 pipe-1 128;
#X obj 563 174 hsl 162 19 0 127 0 0 empty empty empty -2 -10 0 12 #fcfcfc #000000 #000000 0 1;
#X obj 560 198 / 127;
#X obj 501 23 hsl 162 19 0 127 0 0 empty empty empty -2 -10 0 12 #fcfcfc #000000 #000000 0 1;
#X obj 501 62 / 127;
#X floatatom 500 159 5 0 0 0 - - - 0;
#X obj 501 86 pow 2;
#X floatatom 410 254 13 0 0 0 - - - 0;
#X obj 602 62 r ctls;
#X obj 586 118 s lfo-depth;
#X obj 560 222 pow 2;
#X obj 560 246 * 20;
#X obj 603 315 s lfo-rate;
#X obj 602 86 route 7 1;
#X obj 266 47 inlet;
#X msg 275 129 50 100;
#X obj 506 117 * 1;
#X obj 334 14 loadbang;
#X obj 765 24 hsl 162 19 0 127 0 0 empty empty empty -2 -10 0 12 #fcfcfc #000000 #000000 0 1;
#X obj 762 48 / 127;
#X obj 762 72 * 20;
#X obj 762 96 s skew;
#X msg 281 178 50 0;
#X connect 1 0 0 0;
#X connect 2 0 4 0;
#X connect 3 0 6 0;
#X connect 3 1 8 0;
#X connect 4 0 5 0;
#X connect 4 0 11 0;
#X connect 5 0 4 1;
#X connect 6 0 2 0;
#X connect 7 0 3 0;
#X connect 8 0 4 1;
#X connect 9 0 13 0;
#X connect 10 0 9 1;
#X connect 10 0 23 0;
#X connect 11 0 9 0;
#X connect 11 1 10 0;
#X connect 11 2 12 0;
#X connect 12 0 9 2;
#X connect 14 0 16 0;
#X connect 15 0 16 0;
#X connect 16 0 1 0;
#X connect 17 0 18 0;
#X connect 18 0 26 0;
#X connect 19 0 20 0;
#X connect 20 0 22 0;
#X connect 22 0 32 0;
#X connect 24 0 29 0;
#X connect 26 0 27 0;
#X connect 27 0 28 0;
#X connect 29 0 20 0;
#X connect 29 1 18 0;
#X connect 30 0 15 0;
#X connect 31 0 15 0;
#X connect 32 0 25 0;
#X connect 33 0 7 0;
#X connect 34 0 35 0;
#X connect 35 0 36 0;
#X connect 36 0 37 0;
#X connect 38 0 15 0;
#X restore 1053 125 pd pipe-1;
#X obj 640 580 dac~ 1 2;
#X obj 732 297 hsl 162 19 0 127 0 0 empty empty empty -2 -10 0 12 #fcfcfc #000000 #000000 0 1;
#X obj 741 350 / 127;
#X obj 741 374 lop~ 5;
#X obj 621 475 *~;
#X obj 693 484 *~;
#X obj 756 489 rev3~ 100 90 3000 20;
#X obj 618 404 *~ 1;
#X obj 696 420 *~ 1;
#X obj 901 343 hsl 162 19 0 127 0 0 empty empty empty -2 -10 0 12 #fcfcfc #000000 #000000 0 1;
#X obj 895 386 / 127;
#X obj 895 410 lop~ 5;
#X obj 756 457 *~;
#X obj 810 458 *~;
#X obj 453 196 tgl 15 0 empty empty empty 17 7 0 10 #fcfcfc #000000 #000000 0 1;
#X obj 452 269 s ticks;
#X floatatom 545 203 5 0 0 0 - - - 0;
#X obj 452 236 metro360 120;
#X obj 89 325 seq-module 0.25;
#X msg 514 176 80;
#X obj 89 262 r ticks;
#X obj 127 528 pack;
#X msg 114 252 sync-start;
#X obj 110 353 seq-module 0.25;
#X msg 126 300 free-start;
#X msg 119 422 stop;
#X obj 86 462 makenote 127 90;
#X floatatom 191 429 5 0 0 0 - - - 0;
#X msg 211 305 _ 59 _ _ 55 55 _;
#X msg 232 339 _ _ 59 _ 55 59 _ 59 59 _ _;
#X msg 190 277 50 _ 50 50 _ 50 50 _ 55 _ 55 34;
#X msg 965 586 36 41 43;
#X obj 259 423 mtof;
#X msg 309 418 36;
#X obj 178 572 pack 0 0 0;
#X obj 400 536 hsl 162 19 0 127 0 0 empty empty empty -2 -10 0 12 #fcfcfc #000000 #000000 0 1;
#X obj 397 560 / 127;
#X msg 404 594 all skew \$1;
#X msg 269 242 41 _ 43 43 _ 41;
#X obj 328 510 tgl 19 0 empty empty empty 0 -10 0 12 #fcfcfc #000000 #000000 0 1;
#X msg 269 560 43 \$1;
#N canvas 92 117 614 388 midi-in 1;
#X obj 136 22 notein;
#X obj 136 68 pack 0 0;
#X obj 47 129 ctlin;
#X obj 35 292 pack, f 6;
#X obj 35 248 i;
#X obj 35 216 t b a;
#X obj 35 316 s ctls;
#X obj 136 92 s notes;
#X connect 0 0 1 0;
#X connect 0 1 1 1;
#X connect 1 0 7 0;
#X connect 2 0 5 0;
#X connect 2 1 4 1;
#X connect 3 0 6 0;
#X connect 4 0 3 0;
#X connect 5 0 4 0;
#X connect 5 1 3 1;
#X restore 19 37 pd midi-in;
#X obj 272 460 r notes;
#X msg 325 209 _ 45 43 _;
#X msg 244 509 36 \$1;
#X obj 339 452 tgl 19 0 empty empty empty 0 -10 0 12 #fcfcfc #000000 #000000 0 1;
#X obj 335 485 * 100;
#X floatatom 158 420 5 0 0 0 - - - 0;
#X obj 324 543 * 50;
#X obj 179 545 poly 8 1, f 10;
#X msg 210 378 _ _ 41 _ 41 41 _ 43 43 _ _;
#X obj 234 411 tgl 19 0 empty empty empty 0 -10 0 12 #fcfcfc #000000 #000000 0 1;
#X obj 230 444 * 100;
#X msg 204 475 41 \$1;
#X obj 17 123 pdcontrol;
#X msg 17 96 dir;
#X obj 17 187 print lol;
#X obj 17 63 loadbang;
#X obj 33 158 v lib-dir;
#X obj 711 178 throw~ outL;
#X obj 941 196 throw~ outR;
#X obj 187 677 throw~ outL;
#X obj 398 683 throw~ outR;
#X obj 625 227 catch~ outL;
#X obj 714 235 catch~ outR;
#X obj 1054 173 throw~ outL;
#X obj 1074 153 throw~ outR;
#X obj 192 627 clone -s 1 8 duck-voice~ organ-4-voice~;
#X text 935 611 // params f = hslider("f%i" \, 1 \, 0.001 \, 12 \, 0.001) \; a = hslider("a%i" \, 0.001 \, 0.001 \, 4 \, 0.001) \; d = hslider("d%i" \, 0.1 \, 0.001 \, 4 \, 0.001) \; s = hslider("s%i" \, 0.2 \, 0 \, 1 \, 0.01) \; r = hslider("r%i" \, 0.5 \, 0.001 \, 4 \, 0.001) \; amp = hslider("amp%i" \, 0.1 \, 0 \, 1 \, 0.01) \; fa = hslider("fa%i" \, 0.001 \, 0.001 \, 4 \, 0.001) \; fd = hslider("fd%i" \, 0.1 \, 0.001 \, 4 \, 0.001) \; fs = hslider("fs%i" \, 0.2 \, 0 \, 1 \, 0.01) \; fr = hslider("fr%i" \, 0.5 \, 0.001 \, 4 \, 0.001) \; freqDepth = hslider("freqDepth%i" \, 10 \, 0 \, 1400 \, 0.1) \; freqEnv = en.adsre(fa \, fd \, fs \, fr \, gate) * freqDepth \;;
#X obj 928 117 list trim;
#X obj 928 93 list prepend all;
#X obj 569 34 hsl 162 19 0 127 0 0 empty empty empty -2 -10 0 12 #fcfcfc #000000 #000000 0 1;
#X obj 568 59 / 127;
#X msg 641 112 modAmt \$1;
#X obj 1166 55 hsl 162 19 0 127 0 0 empty empty empty -2 -10 0 12 #fcfcfc #000000 #000000 0 1;
#X obj 1163 79 / 127;
#X obj 1163 103 * 18;
#X msg 1236 132 feed \$1;
#X msg 803 77 r1 4;
#X msg 747 75 f4 1.01;
#X obj 568 83 * 35;
#X msg 802 45 d2 0.5;
#X floatatom 1052 282 5 0 0 0 - - - 0;
#X msg 860 39 f3 4;
#X msg 928 69 f1 1;
#X msg 1150 233 f4 2.01;
#X msg 1098 223 f6 1;
#X obj 711 154 clone -s 1 8 duck-voice~ fm6-voice~;
#X msg 412 448 39 \, 42 \, 44 \, 46;
#X obj 412 472 makenote 100 5000;
#X obj 412 496 pack;
#X msg 1049 225 f5 0.51;
#X msg 1045 309 fd\$1 5 \, fs\$1 0 \, fa\$1 0.01 \, freqDepth\$1 1;
#X msg 1009 57 f2 2;
#X connect 1 0 67 0;
#X connect 1 0 68 0;
#X connect 3 0 4 0;
#X connect 4 0 5 0;
#X connect 5 0 6 1;
#X connect 5 0 7 1;
#X connect 6 0 2 0;
#X connect 7 0 2 1;
#X connect 8 0 2 0;
#X connect 8 1 2 1;
#X connect 9 0 6 0;
#X connect 9 0 14 0;
#X connect 10 0 7 0;
#X connect 10 0 15 0;
#X connect 11 0 12 0;
#X connect 12 0 13 0;
#X connect 13 0 14 1;
#X connect 13 0 15 1;
#X connect 14 0 8 0;
#X connect 15 0 8 1;
#X connect 16 0 19 0;
#X connect 18 0 19 1;
#X connect 19 0 17 0;
#X connect 20 0 28 0;
#X connect 21 0 19 1;
#X connect 22 0 20 0;
#X connect 22 0 25 0;
#X connect 23 0 51 0;
#X connect 24 0 20 0;
#X connect 24 0 25 0;
#X connect 25 0 28 0;
#X connect 26 0 25 0;
#X connect 27 0 25 0;
#X connect 27 0 20 0;
#X connect 28 0 23 0;
#X connect 28 1 23 1;
#X connect 29 0 28 2;
#X connect 30 0 25 1;
#X connect 31 0 25 1;
#X connect 32 0 20 1;
#X connect 35 0 34 0;
#X connect 36 0 89 0;
#X connect 37 0 38 0;
#X connect 38 0 39 0;
#X connect 39 0 69 1;
#X connect 40 0 20 1;
#X connect 41 0 50 0;
#X connect 42 0 51 0;
#X connect 44 0 51 0;
#X connect 45 0 25 1;
#X connect 46 0 51 0;
#X connect 47 0 48 0;
#X connect 48 0 46 0;
#X connect 49 0 28 1;
#X connect 50 0 42 0;
#X connect 51 0 36 0;
#X connect 51 1 36 1;
#X connect 51 2 36 2;
#X connect 52 0 25 1;
#X connect 53 0 54 0;
#X connect 54 0 55 0;
#X connect 55 0 51 0;
#X connect 56 0 58 0;
#X connect 56 0 60 0;
#X connect 57 0 56 0;
#X connect 59 0 57 0;
#X connect 65 0 9 0;
#X connect 66 0 10 0;
#X connect 69 0 63 0;
#X connect 69 1 64 0;
#X connect 71 0 89 1;
#X connect 72 0 71 0;
#X connect 73 0 74 0;
#X connect 74 0 82 0;
#X connect 75 0 72 0;
#X connect 76 0 77 0;
#X connect 77 0 78 0;
#X connect 78 0 79 0;
#X connect 79 0 72 0;
#X connect 80 0 72 0;
#X connect 81 0 72 0;
#X connect 82 0 75 0;
#X connect 83 0 72 0;
#X connect 84 0 94 0;
#X connect 85 0 72 0;
#X connect 86 0 72 0;
#X connect 87 0 72 0;
#X connect 88 0 72 0;
#X connect 89 0 61 0;
#X connect 89 1 62 0;
#X connect 90 0 91 0;
#X connect 91 0 92 0;
#X connect 91 1 92 1;
#X connect 92 0 51 0;
#X connect 93 0 72 0;
#X connect 94 0 72 0;
#X connect 95 0 72 0;
