#N canvas 120 269 855 523 12;
#X declare -path ../lib;
#X obj 51 38 declare -path ../lib;
#N canvas 348 113 1092 443 pipe-1 0;
#X obj 98 318 outlet~;
#X obj 98 277 *~ 0.5;
#X obj 367 124 until;
#X obj 365 73 t a b;
#X obj 381 168 f;
#X obj 425 169 + 1;
#X obj 365 97 max 1;
#X msg 365 51 128;
#X obj 423 134 i 1;
#X obj 381 296 pack 0 0 0, f 20;
#X obj 427 226 mtof;
#X obj 381 192 t a a b, f 14;
#X obj 497 247 i 3;
#X msg 380 351 \; freq-\$1 \$2 \$3;
#X msg 268 226 vis 50 1;
#N canvas 468 337 753 393 the-stops 0;
#X obj 51 11 inlet;
#X obj 91 60 unpack, f 31;
#X obj 88 276 pack 0 0, f 34;
#X obj 29 305 outlet;
#X floatatom 479 128 5 0 0 0 - - - 0;
#X obj 479 151 mtof;
#X floatatom 479 175 5 0 0 0 - - - 0;
#X msg 513 102 50;
#X floatatom 551 237 5 0 0 0 - - - 0;
#X obj 551 260 ftom;
#X floatatom 551 284 5 0 0 0 - - - 0;
#X obj 551 213 * 7;
#X obj 91 114 t a a a a a a a, f 39;
#X obj 89 190 + 0;
#X obj 249 194 - 12;
#X connect 0 0 1 0;
#X connect 0 0 3 0;
#X connect 1 0 12 0;
#X connect 1 1 2 1;
#X connect 2 0 3 0;
#X connect 4 0 5 0;
#X connect 5 0 6 0;
#X connect 6 0 11 0;
#X connect 7 0 5 0;
#X connect 8 0 9 0;
#X connect 9 0 10 0;
#X connect 11 0 8 0;
#X connect 12 0 13 0;
#X connect 12 3 2 0;
#X connect 12 3 14 0;
#X connect 13 0 2 0;
#X connect 14 0 2 0;
#X restore 182 160 pd the-stops;
#X obj 98 253 clone -s 1 pipe-1 128;
#X obj 563 174 hsl 162 19 0 127 0 0 empty empty empty -2 -10 0 12 #fcfcfc #000000 #000000 0 1;
#X obj 560 198 / 127;
#X obj 501 23 hsl 162 19 0 127 0 0 empty empty empty -2 -10 0 12 #fcfcfc #000000 #000000 0 1;
#X obj 501 62 / 127;
#X floatatom 500 159 5 0 0 0 - - - 0;
#X obj 501 86 pow 2;
#X floatatom 410 254 13 0 0 0 - - - 0;
#X obj 602 62 r ctls;
#X obj 586 118 s lfo-depth;
#X obj 560 222 pow 2;
#X obj 560 246 * 20;
#X obj 603 315 s lfo-rate;
#X obj 602 86 route 7 1;
#X obj 266 47 inlet;
#X msg 275 129 50 100;
#X obj 506 117 * 1;
#X obj 334 14 loadbang;
#X obj 765 24 hsl 162 19 0 127 0 0 empty empty empty -2 -10 0 12 #fcfcfc #000000 #000000 0 1;
#X obj 762 48 / 127;
#X obj 762 72 * 20;
#X obj 762 96 s skew;
#X msg 281 178 50 0;
#X connect 1 0 0 0;
#X connect 2 0 4 0;
#X connect 3 0 6 0;
#X connect 3 1 8 0;
#X connect 4 0 5 0;
#X connect 4 0 11 0;
#X connect 5 0 4 1;
#X connect 6 0 2 0;
#X connect 7 0 3 0;
#X connect 8 0 4 1;
#X connect 9 0 13 0;
#X connect 10 0 9 1;
#X connect 10 0 23 0;
#X connect 11 0 9 0;
#X connect 11 1 10 0;
#X connect 11 2 12 0;
#X connect 12 0 9 2;
#X connect 14 0 16 0;
#X connect 15 0 16 0;
#X connect 16 0 1 0;
#X connect 17 0 18 0;
#X connect 18 0 26 0;
#X connect 19 0 20 0;
#X connect 20 0 22 0;
#X connect 22 0 32 0;
#X connect 24 0 29 0;
#X connect 26 0 27 0;
#X connect 27 0 28 0;
#X connect 29 0 20 0;
#X connect 29 1 18 0;
#X connect 30 0 15 0;
#X connect 31 0 15 0;
#X connect 32 0 25 0;
#X connect 33 0 7 0;
#X connect 34 0 35 0;
#X connect 35 0 36 0;
#X connect 36 0 37 0;
#X connect 38 0 15 0;
#X restore 351 203 pd pipe-1;
#X obj 332 428 dac~ 1 2;
#X obj 424 145 hsl 162 19 0 127 0 0 empty empty empty -2 -10 0 12 #fcfcfc #000000 #000000 0 1;
#X obj 433 198 / 127;
#X obj 433 222 lop~ 5;
#X obj 313 323 *~;
#X obj 385 332 *~;
#X obj 448 337 rev3~ 100 90 3000 20;
#X obj 310 252 *~ 1;
#X obj 388 268 *~ 1;
#X obj 593 191 hsl 162 19 0 127 0 0 empty empty empty -2 -10 0 12 #fcfcfc #000000 #000000 0 1;
#X obj 587 234 / 127;
#X obj 587 258 lop~ 5;
#X obj 448 305 *~;
#X obj 502 306 *~;
#X obj 385 18 tgl 15 0 empty empty empty 17 7 0 10 #fcfcfc #000000 #000000 0 1;
#X obj 384 91 s ticks;
#X floatatom 477 25 5 0 0 0 - - - 0;
#X obj 384 58 metro360 120;
#X obj 21 147 seq-module 0.25;
#X msg 446 -2 80;
#X obj 21 84 r ticks;
#X obj 59 350 pack;
#X msg 46 74 sync-start;
#X obj 42 175 seq-module 0.25;
#X msg 58 122 free-start;
#X msg 51 244 stop;
#X obj 18 284 makenote 127 90;
#X floatatom 123 251 5 0 0 0 - - - 0;
#X msg 143 127 _ 59 _ _ 55 55 _;
#X msg 164 161 _ _ 59 _ 55 59 _ 59 59 _ _;
#X msg 122 99 50 _ 50 50 _ 50 50 _ 55 _ 55 34;
#X msg 657 434 36 41 43;
#X obj 191 245 mtof;
#X msg 241 240 36;
#X obj 110 394 pack 0 0 0;
#X obj 650 291 hsl 162 19 0 127 0 0 empty empty empty -2 -10 0 12 #fcfcfc #000000 #000000 0 1;
#X obj 647 315 / 127;
#X msg 654 349 all skew \$1;
#X msg 201 64 41 _ 43 43 _ 41;
#X obj 260 332 tgl 19 0 empty empty empty 0 -10 0 12 #fcfcfc #000000 #000000 0 1;
#X msg 201 382 43 \$1;
#N canvas 92 117 614 388 midi-in 1;
#X obj 136 22 notein;
#X obj 136 68 pack 0 0;
#X obj 47 129 ctlin;
#X obj 35 292 pack, f 6;
#X obj 35 248 i;
#X obj 35 216 t b a;
#X obj 35 316 s ctls;
#X obj 136 92 s notes;
#X connect 0 0 1 0;
#X connect 0 1 1 1;
#X connect 1 0 7 0;
#X connect 2 0 5 0;
#X connect 2 1 4 1;
#X connect 3 0 6 0;
#X connect 4 0 3 0;
#X connect 5 0 4 0;
#X connect 5 1 3 1;
#X restore 564 31 pd midi-in;
#X obj 204 282 r notes;
#X msg 257 31 _ 45 43 _;
#X msg 176 331 36 \$1;
#X obj 271 274 tgl 19 0 empty empty empty 0 -10 0 12 #fcfcfc #000000 #000000 0 1;
#X obj 267 307 * 100;
#X floatatom 90 242 5 0 0 0 - - - 0;
#X obj 256 365 * 50;
#X obj 111 367 poly 8 1, f 10;
#X msg 142 200 _ _ 41 _ 41 41 _ 43 43 _ _;
#X obj 166 233 tgl 19 0 empty empty empty 0 -10 0 12 #fcfcfc #000000 #000000 0 1;
#X obj 162 266 * 100;
#X msg 136 297 41 \$1;
#X obj 124 449 clone -s 1 8 organ-4-big-voice~;
#X connect 1 0 9 0;
#X connect 1 0 10 0;
#X connect 3 0 4 0;
#X connect 4 0 5 0;
#X connect 5 0 6 1;
#X connect 5 0 7 1;
#X connect 6 0 2 0;
#X connect 7 0 2 1;
#X connect 8 0 2 0;
#X connect 8 1 2 1;
#X connect 9 0 6 0;
#X connect 9 0 14 0;
#X connect 10 0 7 0;
#X connect 10 0 15 0;
#X connect 11 0 12 0;
#X connect 12 0 13 0;
#X connect 13 0 14 1;
#X connect 13 0 15 1;
#X connect 14 0 8 0;
#X connect 15 0 8 1;
#X connect 16 0 19 0;
#X connect 18 0 19 1;
#X connect 19 0 17 0;
#X connect 20 0 28 0;
#X connect 21 0 19 1;
#X connect 22 0 20 0;
#X connect 22 0 25 0;
#X connect 23 0 51 0;
#X connect 24 0 20 0;
#X connect 24 0 25 0;
#X connect 25 0 28 0;
#X connect 26 0 25 0;
#X connect 27 0 25 0;
#X connect 27 0 20 0;
#X connect 28 0 23 0;
#X connect 28 1 23 1;
#X connect 29 0 28 2;
#X connect 30 0 25 1;
#X connect 31 0 25 1;
#X connect 32 0 20 1;
#X connect 35 0 34 0;
#X connect 36 0 56 0;
#X connect 37 0 38 0;
#X connect 38 0 39 0;
#X connect 39 0 56 1;
#X connect 40 0 20 1;
#X connect 41 0 50 0;
#X connect 42 0 51 0;
#X connect 44 0 51 0;
#X connect 45 0 25 1;
#X connect 46 0 51 0;
#X connect 47 0 48 0;
#X connect 48 0 46 0;
#X connect 49 0 28 1;
#X connect 50 0 42 0;
#X connect 51 0 36 0;
#X connect 51 1 36 1;
#X connect 51 2 36 2;
#X connect 52 0 25 1;
#X connect 53 0 54 0;
#X connect 54 0 55 0;
#X connect 55 0 51 0;
#X connect 56 0 9 0;
#X connect 56 1 10 0;
