#N canvas 401 114 450 573 12;
#X obj 70 359 organ-4-voice~;
#X obj 85 26 inlet;
#X obj 85 50 t a a;
#X obj 117 80 stripnote;
#X obj 117 104 t b;
#X obj 155 130 + 1;
#X obj 117 128 i 1;
#X obj 155 154 == 1;
#X obj 79 187 list prepend;
#X obj 79 211 list trim;
#X obj 190 359 organ-4-voice~;
#X obj 134 449 outlet~;
#X obj 215 451 outlet~;
#X obj 80 288 t a b;
#X obj 174 284 t a b;
#X obj 79 235 route 0 1, f 27;
#X obj 295 128 inlet;
#X connect 0 0 11 0;
#X connect 0 1 12 0;
#X connect 1 0 2 0;
#X connect 2 0 8 0;
#X connect 2 1 3 0;
#X connect 3 0 4 0;
#X connect 4 0 6 0;
#X connect 5 0 7 0;
#X connect 6 0 5 0;
#X connect 6 0 8 1;
#X connect 7 0 6 1;
#X connect 8 0 9 0;
#X connect 9 0 15 0;
#X connect 10 0 11 0;
#X connect 10 1 12 0;
#X connect 13 0 0 0;
#X connect 13 1 10 1;
#X connect 14 0 10 0;
#X connect 14 1 0 1;
#X connect 15 0 13 0;
#X connect 15 1 14 0;
#X connect 16 0 0 2;
#X connect 16 0 10 2;
