#N canvas 577 254 710 562 12;
#X obj 281 362 adsr~ 15 100 0.9 20, f 22;
#X obj 74 398 *~;
#X obj 74 455 outlet~;
#X obj 282 164 inlet;
#X obj 57 17 r freq-\$1;
#X obj 57 41 unpack 0 0;
#X obj 58 196 osc~;
#X obj 132 186 osc~;
#X obj 196 125 r lfo-depth;
#X obj 176 19 r lfo-rate;
#X obj 475 515 switch~;
#X obj 495 358 t b;
#X obj 495 382 i 1;
#X obj 490 428 change -1;
#X obj 432 417 i 0;
#X obj 281 315 t a b;
#X obj 521 474 sel 1;
#X obj 533 138 i 0;
#X obj 58 75 sig~;
#X obj 123 136 +~;
#X obj 176 43 sig~;
#X obj 132 234 *~, f 7;
#X obj 196 149 lop~ 5;
#X obj 58 221 /~ 3;
#X obj 132 210 /~ 3;
#X obj 59 291 *~ 0.25;
#X obj 352 19 r skew;
#X obj 176 67 +~;
#X obj 352 43 t a b;
#X obj 390 74 i \$1;
#X obj 390 98 % 20;
#X obj 390 122 / 20;
#X obj 352 159 *;
#N canvas 0 186 871 645 vel-tracker-logic 0;
#X obj 282 142 t a a;
#X obj 314 169 sel 0, f 13;
#X obj 445 132 text define \$1-vel-track;
#X obj 402 307 text set \$1-vel-track;
#X obj 318 332 text delete \$1-vel-track;
#X obj 278 363 sel 0, f 31;
#X obj 278 389 text size \$1-vel-track;
#X obj 278 413 > 0;
#X obj 276 55 inlet;
#X obj 278 437 sel 0 1;
#X obj 279 471 i 0;
#X obj 401 568 outlet;
#X obj 319 192 text size \$1-vel-track;
#X obj 319 216 > 0;
#X obj 319 240 sel 0 1;
#X obj 320 275 i 0;
#X obj 456 254 text size \$1-vel-track;
#X obj 399 246 t a b;
#X connect 0 0 5 0;
#X connect 0 1 1 0;
#X connect 1 0 12 0;
#X connect 1 1 17 0;
#X connect 5 0 6 0;
#X connect 5 1 11 0;
#X connect 6 0 7 0;
#X connect 7 0 9 0;
#X connect 8 0 0 0;
#X connect 9 0 10 0;
#X connect 10 0 11 0;
#X connect 12 0 13 0;
#X connect 13 0 14 0;
#X connect 14 1 15 0;
#X connect 15 0 4 0;
#X connect 16 0 3 1;
#X connect 17 0 3 0;
#X connect 17 1 16 0;
#X restore 279 265 pd vel-tracker-logic;
#X obj 131 79 sig~;
#X obj 57 264 /~, f 10;
#X connect 0 0 1 1;
#X connect 0 1 14 0;
#X connect 1 0 2 0;
#X connect 3 0 33 0;
#X connect 4 0 5 0;
#X connect 5 0 18 0;
#X connect 5 1 34 0;
#X connect 6 0 23 0;
#X connect 7 0 24 0;
#X connect 8 0 22 0;
#X connect 9 0 20 0;
#X connect 11 0 12 0;
#X connect 12 0 13 0;
#X connect 13 0 10 0;
#X connect 13 0 16 0;
#X connect 14 0 13 0;
#X connect 15 0 0 0;
#X connect 15 1 11 0;
#X connect 17 0 7 1;
#X connect 18 0 19 0;
#X connect 18 0 6 0;
#X connect 19 0 7 0;
#X connect 20 0 27 0;
#X connect 21 0 35 0;
#X connect 22 0 21 1;
#X connect 23 0 35 0;
#X connect 24 0 21 0;
#X connect 25 0 1 0;
#X connect 26 0 28 0;
#X connect 27 0 19 1;
#X connect 28 0 32 0;
#X connect 28 1 29 0;
#X connect 29 0 30 0;
#X connect 30 0 31 0;
#X connect 31 0 32 1;
#X connect 32 0 27 1;
#X connect 33 0 15 0;
#X connect 34 0 35 1;
#X connect 35 0 25 0;
